<?xml version="1.0" encoding="UTF-8"?>
<svg id="Layer_2" data-name="Layer 2" xmlns="http://www.w3.org/2000/svg" viewBox="0 0 95.75 95.75">
  <defs>
    <style>
      .cls-1 {
        fill-rule: evenodd;
        stroke: #000;
        stroke-miterlimit: 10;
      }

      .cls-2 {
        fill: #ffdf96;
        stroke-width: 0px;
      }
    </style>
  </defs>
  <g id="Layer_1-2" data-name="Layer 1">
    <circle class="cls-2" cx="47.87" cy="47.87" r="47.87"/>
    <path class="cls-1" d="M70.45,9.31c-.25.16-.44.29-.57.38-.19.13-.36.16-.52.1-.98-.03-1.96.24-2.95.81-.54.25-1.38.82-2.52,1.71-1.58,1.17-4.13,2.8-7.65,4.89-3.39,2.06-5.91,3.71-7.55,4.94-.95.63-1.54,1.03-1.76,1.19-1.01.82-1.79,1.24-2.33,1.24-.51,0-1.2-.41-2.09-1.24-3.9-3.7-9.31-5.15-16.25-4.32-1.17.13-2.63.44-4.37.95-2.47.76-3.9,1.19-4.28,1.28-1.01.25-2.01.87-2.99,1.85-1.05,1.17-1.85,2.01-2.42,2.52-.16.13-.24.73-.24,1.8,0,.73-.11,3.44-.33,8.12-.19,3.29-.11,5.99.24,8.08.13.92.13,2.11,0,3.56-.16,1.87-.24,3.04-.24,3.51,0,1.93.02,4.8.05,8.6.19,3.26.71,6.06,1.57,8.41.29.82.38,1.39.29,1.71-.13.48-.62.78-1.47.9-.67.13-1.19.49-1.57,1.09-.29.38-.55,1-.81,1.85-.51,1.43.03,2.09,1.62,2,.03-.35.29-.79.76-1.33.48-.57.7-1.06.67-1.47,0-.1.06-.22.19-.38.16-.13.3-.19.43-.19,1.96-.25,4.61-1.01,7.93-2.28,3.58-1.3,6.21-2.11,7.89-2.42,6.46-1.2,12.18.25,17.15,4.37.06.03.38.17.95.43.29-.51.4-1.12.33-1.85-.13-.76-.22-1.33-.29-1.71-.13-.92-.13-2.82,0-5.7.1-2.41-.11-4.32-.62-5.75-.1-.16-.14-.55-.14-1.19.16-2.76-.03-6.33-.57-10.74-.63-5.57-1-9.12-1.09-10.64-.13-1.9-.22-3.34-.29-4.32-.03-1.71.08-3.25.33-4.61.7.86,1.01,1.9.95,3.14-.06,1.84-.1,2.8-.1,2.9.25,1.36.46,3.42.62,6.18.25,2.63.49,4.65.71,6.08.19,1.33.51,3.34.95,6.03.13,1.3.19,3.25.19,5.84,0,.54.17,1.54.52,2.99.32,1.3.43,2.33.33,3.09-.16,2.03-.03,4.07.38,6.13.03.29.1,1.3.19,3.04.1,1.27.33,2.28.71,3.04.48-.22,1.19-.52,2.14-.9.79-.38,1.41-.82,1.85-1.33.1-.06.21-.17.33-.33.16-.13.29-.17.38-.14,1.11.32,2.22.14,3.33-.52.63-.32,1.54-.93,2.71-1.85,1.93-1.2,5.27-2.74,10.02-4.61.38.95.52,1.52.43,1.71-.1.19-.6.43-1.52.71-2.44.79-4.85,1.84-7.22,3.14.44.35.93.52,1.47.52.32-.03.74-.06,1.28-.1l9.03.48c1.01.1,1.66,0,1.95-.29.35-.32.51-.98.48-2l-.29-11.54c-.03-1.33.13-2.75.48-4.28.41-1.71.68-3.88.81-6.51.19-3.71.33-5.91.43-6.6.25-2.72.74-9.04,1.47-18.95,0-.41.03-.71.1-.9.1-.25.33-.4.71-.43l6.13-.48c.63-.03,1.09.3,1.38,1,.19.32.22.65.1,1-.1.32-.29.51-.57.57-.67.32-1.09.78-1.28,1.38-.16.29-.27.86-.33,1.71-.79,8.39-1.16,13.89-1.09,16.48,0,.98-.05,2.49-.14,4.51-.13,1.96-.17,3.44-.14,4.42l.62,16.58c.03.63-.08,1.87-.33,3.71-.19,1.49-.19,2.71,0,3.66.06.41-.03.78-.29,1.09-.29.35-.68.49-1.19.43-.79-.06-1.41.16-1.85.67-.06.06-.4.6-1,1.61.7.51,1.22.41,1.57-.29.19-.51.35-.81.48-.9.29-.22.63-.17,1.05.14.95.7,1.14,1.49.57,2.38-.54.76-1.22,1.17-2.04,1.24-3.99.29-6.98.49-8.98.62-3.61.25-6.63.19-9.07-.19-3.04-.41-7.93-.46-14.68-.14-2.82.32-4.94.49-6.37.52-1.14.13-2,.22-2.57.29-.98.03-1.84-.05-2.57-.24-.51-.06-1.36-.14-2.57-.24-1.17-.1-2.06-.21-2.66-.33-.89-.19-2-.21-3.33-.05-1.49.29-2.6.48-3.33.57-4.15.57-8.03.57-11.64,0-1.49-.13-2.61-.24-3.37-.33-.86-.03-1.44-.19-1.76-.48-.29-.35-.46-1-.52-1.95.06-.25.1-.44.1-.57,0-.19-.1-.35-.29-.48-.76-.44-1.25-1.14-1.47-2.09-.13-1.11-.21-1.96-.24-2.57-.35-3.07-.6-5.4-.76-6.98-.22-2-.33-3.12-.33-3.37.03-1.05.05-4.24.05-9.6,0-3.99.16-7.22.48-9.69.03-.51-.03-1.55-.19-3.14-.13-1.3-.05-2.36.24-3.18.03-.13.02-.29-.05-.48-.06-.19-.13-.3-.19-.33-.92-.44-1.31-.98-1.19-1.62.35-.82.62-1.44.81-1.85.44-1.2.7-1.98.76-2.33.22-.86.22-1.65,0-2.38-.1-.38-.08-.78.05-1.19.13-.48.32-.7.57-.67,1.05.13,1.65-.14,1.81-.81,0-.86.06-1.49.19-1.9.32-.92.6-1.44.86-1.57.25-.13.79.03,1.62.48.13.1.29.24.48.43.19.06.41-.03.67-.29.95-.89,2.22-1.65,3.8-2.28.03-.06,1.41-.57,4.13-1.52,4.97-1.71,9.72-2.11,14.25-1.19,3.71.66,6.67,1.96,8.88,3.9.54.48,1.08.71,1.62.71.41,0,.93-.17,1.57-.52,4.81-2.66,10.47-6.38,16.96-11.16,1.68-1.27,3.52-2.12,5.51-2.57.7-.1,1.16.03,1.38.38.29.6.1,1.13-.57,1.57ZM71.45,11.97c-.06.67-.25,1.62-.57,2.85-.16,1.14-.14,2.14.05,2.99.57-.06,1.36-.38,2.38-.95.95-.51,1.73-.78,2.33-.81.51,0,1.31.02,2.42.05,1.01.03,1.84-.08,2.47-.33.48-.16.92,0,1.33.48.32.38.3.84-.05,1.38-.38.7-.87.92-1.47.67-1.33-.6-2.88-.7-4.66-.29-1.9.67-3.34,1.09-4.32,1.28-.44.1-.62.43-.52,1,.29,2.38.22,6.24-.19,11.59-.13,1.55-.1,3.39.1,5.51.13,1.24.33,3.07.62,5.51.03.48.73,7.08,2.09,19.81.1.76.02,1.2-.24,1.33-.22.13-.9.14-2.04.05-.54-6.84-.9-11.99-1.09-15.44-.41-4.34-.68-7.6-.81-9.79-.19-3.74-.16-7,.1-9.79.19-2.31.21-5.8.05-10.45-.03-.82.03-1.95.19-3.37.19-1.62.29-2.74.29-3.37,0-1.05.4-1.47,1.19-1.28.38.06.57.25.57.57,0,.16-.06.43-.19.81ZM84.71,21.23c-1.77,0-2.83.21-3.18.62-.29.41-.32,1.66-.1,3.75,1.36-1.05,2.11-1.65,2.23-1.81.73-.73,1.08-1.58,1.05-2.57ZM48.74,13.77c.89-.38,2.6-1.35,5.13-2.9,2.15-1.24,3.96-2.06,5.42-2.47-1.58,1.81-3.86,3.48-6.84,5.04l-2.95,1.71c-.38.25-.71.16-1-.29-.29-.54-.21-.9.24-1.09ZM61.71,28.02c.63-.35,1.05-.25,1.24.29.25.79.02,1.25-.71,1.38-2.82.6-6.4,2.04-10.74,4.32.03-.79.29-1.38.76-1.76.32-.22.78-.43,1.38-.62.73-.38,2.07-.97,4.04-1.76,1.74-.67,3.09-1.28,4.04-1.85ZM57.49,41.51c1.87-.6,4.07-1.03,6.6-1.28-.44.73-.97,1.27-1.57,1.62-.29.16-.81.36-1.57.62-3.64,1.01-5.87,1.73-6.7,2.14-.6.29-1.05.19-1.33-.29-.32-.51-.13-.89.57-1.14,2.41-1.05,3.74-1.6,3.99-1.66ZM81.43,30.16c1.96-1.58,2.96-3.33,2.99-5.23-1.49,1.08-2.31,1.69-2.47,1.85-.79.85-.97,1.98-.52,3.37ZM83.71,30.21c-1.58,1.08-2.58,2.23-2.99,3.47-.44,1.24-.43,2.99.05,5.27,1.68-2.5,2.57-3.85,2.66-4.04.76-1.55.86-3.12.29-4.7ZM80.15,47.64c-.51,1.14-.87,2.6-1.09,4.37-.19,1.81-.13,3.14.19,3.99,2.53-2.28,3.86-3.64,3.99-4.09.13-.32.14-2.66.05-7.03-.86.06-1.54.4-2.04,1-.35.32-.71.9-1.09,1.76ZM83.42,42.61c.25-.66.25-2.38,0-5.13-1.3,1.49-2.19,2.61-2.66,3.37-.76,1.3-.97,2.64-.62,4.04,1.87-.92,2.96-1.68,3.28-2.28ZM88.08,53.48c-.06-.51.22-.82.86-.95.48-.1.79.08.95.52.1.22.19.63.29,1.24.51,1.61.6,3.51.29,5.7-.54,3.55-.54,7.31,0,11.3.13.63.17,1.03.14,1.19-.1.38-.38.6-.86.67-.89.16-1.33-.38-1.33-1.62v-4.61c-.1-3.1.06-5.54.48-7.32.32-1.52.17-3.14-.43-4.85-.25-.54-.38-.97-.38-1.28ZM89.65,76.62c.38.19.59.55.62,1.09.06.79.1,1.22.1,1.28.03.44.03.76,0,.95-.06.29-.29.46-.67.52-.6.03-.98-.33-1.14-1.09-.25-1.11-.14-1.96.33-2.57.16-.35.41-.41.76-.19ZM79.15,58.33c-.57,1.24-.49,2.49.24,3.75l.48-.29c.19-.1.36-.51.52-1.24.13-.51.48-.62,1.05-.33.38.25.44.62.19,1.09-.44.6-.73,1.01-.86,1.24-.06.22-.19.4-.38.52-1.11.85-1.52,2.23-1.24,4.13l.9,4.28,2.57-3.56c.92-1.2,1.2-2.36.86-3.47-.25-.89-.25-2.3,0-4.23.03-.25-.02-2.2-.14-5.84-2.12,1.36-3.52,2.68-4.18,3.94ZM62.95,54.15c-.22.6-.62,1.03-1.19,1.28l-6.84,2.52c-.67.25-1.09.11-1.28-.43-.19-.38-.03-.71.48-1l7.55-3.28c.73-.32,1.16-.02,1.28.9ZM64.23,72.15c-.6,0-1.03.21-1.28.62-.1.13-.93,1-2.52,2.61-.98,1.08-1.5,2.17-1.57,3.28,2.19.73,3.82.05,4.89-2.04l2.33-4.04c-.92-.22-1.54-.36-1.85-.43ZM61,73.01c-2.72.16-4.5.44-5.32.86-1.24.63-2.26,2.11-3.09,4.42l3.33.29c.67.16,1.03.1,1.09-.19.25-.73.9-1.62,1.95-2.66,1.08-1.08,1.76-1.98,2.04-2.71ZM66.99,79.23c.54.16.87.05,1-.33.19-.89.78-1.87,1.76-2.95,1.14-1.33,1.84-2.26,2.09-2.8-1.9-.44-3.15-.55-3.75-.33-.6.22-1.33,1-2.19,2.33l-2.09,3.42,3.18.67ZM50.22,76.24c-.6.38-1.05.63-1.33.76-.25.13-.43.38-.52.76-.06.35,0,.65.19.9.38.54.92.51,1.62-.1.79-.54,1.36-1.36,1.71-2.47-.51-.22-1.06-.17-1.66.14ZM55.4,85.88c.32,0,.78.03,1.38.1.48-.1.74.14.81.71.06.41-.16.71-.67.9-1.17.25-2.17-.14-2.99-1.19.44-.29.93-.46,1.47-.52ZM77.01,72.77c-1.68-.19-3.17.32-4.47,1.52-1.27,1.62-2.23,2.82-2.9,3.61-.38.51-.24.9.43,1.19.54.32,1.41.32,2.61,0,1.2-.25,2-.63,2.38-1.14l4.09-5.6c-1.27.28-1.98.43-2.14.43ZM80.76,75.19c.22-.25.55-.62,1-1.09.86-.95,1.14-2.25.86-3.9-.38.51-1.54,1.87-3.47,4.09-1.36,1.62-2.38,3.04-3.04,4.28,1.27,0,2.14-.08,2.61-.24.73-.29,1.2-.95,1.43-2,.06-.35.27-.73.62-1.14ZM8.56,32.44c.03-.29.38-.89,1.05-1.81.54-.7.67-1.46.38-2.28-.73.76-1.2,1.39-1.43,1.9-.29.7-.29,1.42,0,2.19ZM8.03,44.13c1.11-.82,1.76-1.46,1.95-1.9.16-.44.17-1.6.05-3.47-.95,1.33-1.52,2.22-1.71,2.66-.41.92-.51,1.82-.29,2.71ZM8.03,38.76c1.05-.92,1.71-1.8,2-2.66.35-1.01.29-2.17-.19-3.47-.29.73-.78,1.71-1.47,2.95-.48,1.14-.59,2.2-.33,3.18ZM32.5,11.87c-.03-.79.46-1.08,1.47-.86,1.58-.16,3.21.06,4.89.67,1.2.41,2.63,1.16,4.28,2.23.22.13.62.48,1.19,1.05.19.29.19.55,0,.81-.25.38-.52.44-.81.19-1.14-1.11-2.64-1.92-4.51-2.42-.1,0-1.79-.32-5.08-.95-.44,0-.74-.03-.9-.1-.35-.06-.52-.27-.52-.62ZM27.7,31.3c.38.03,1.12.24,2.23.62.38.16,1.25.52,2.61,1.09,1.14.54,2.09.87,2.85,1-1.3,1.27-2.61,1.6-3.94,1-3.33-1.46-7.3-1.36-11.92.29-.51.19-1,.29-1.47.29-.13.06-.36-.08-.71-.43-.22-.16-.16-.41.19-.76.35-.48,1.06-.84,2.14-1.09.63-.19,1.62-.43,2.95-.71,1.14-.29,2.11-.63,2.9-1.05.63-.32,1.36-.4,2.19-.24ZM19.72,46.55c-.76.35-1.54.4-2.33.14,3.86-3.64,8.46-4.93,13.78-3.85.41.13.84.36,1.28.71.48.29.55.65.24,1.09-.13.22-.36.36-.71.43-.41.13-1.01.03-1.81-.29-2.91-1.3-5.81-1.09-8.69.62-.73.57-1.31.95-1.76,1.14ZM8.22,47.36c-.13.32-.36,1.44-.71,3.37,1.55-.86,2.47-1.71,2.76-2.57.35-.79.22-1.96-.38-3.52-.76.7-1.31,1.6-1.66,2.71ZM29.98,58.23c-2.98-1.39-6.08-1.24-9.31.48-.19.06-.38.06-.57,0-.13,0-.32-.1-.57-.29.03-.13.08-.32.14-.57,1.36-1.2,3.39-1.95,6.08-2.23,2.76-.32,4.86,0,6.32.95.67.38.63.84-.1,1.38-.63.51-1.3.6-2,.29ZM36.16,70.25c-.7,1.14-1.73,2.5-3.09,4.09-1.96,2.31-3.09,3.66-3.37,4.04,2.82.67,4.92-.27,6.32-2.8.41-.6,1.66-2.26,3.75-4.99-.92-.48-1.57-.78-1.95-.9-.73-.32-1.28-.13-1.66.57ZM33.4,69.02h-1.24c-.54-.06-.93.17-1.19.71-.29.48-.71,1.03-1.28,1.66-.79.73-1.3,1.25-1.52,1.57-1.05,1.27-1.85,2.22-2.42,2.85-.95,1.2-1.58,2.34-1.9,3.42,2.12.48,3.56.22,4.32-.76.22-.25,1.24-1.35,3.04-3.28,1.2-1.33,2.07-2.5,2.61-3.52.13-.22.36-.55.71-1,.25-.38.24-.76-.05-1.14-.25-.25-.62-.43-1.09-.52ZM9.89,50.68c-1.9,1.36-2.52,3.01-1.85,4.94,1.05-.38,1.63-1.11,1.76-2.19-.06-1.23-.03-2.15.1-2.76ZM10.22,64.08c-1.11,1.17-1.68,2.44-1.71,3.8,0,.73.22,1.96.67,3.7,1.33-.92,1.98-2.07,1.95-3.47,0-.38-.3-1.73-.9-4.04ZM9.7,56.86c-.86,1.36-1.38,2.44-1.57,3.23-.44,1.3-.48,2.6-.1,3.9,1.11-.95,1.76-2.09,1.95-3.42.13-.86.03-2.09-.29-3.71ZM25.18,75.05c.89-1.33,2.49-3.18,4.8-5.56-.89-.25-2-.19-3.33.19-2.6.67-4.61,1.52-6.03,2.57-1.84,1.36-3.01,3.25-3.52,5.65-.1.32-.32.44-.67.38-.29-.06-.48-.29-.57-.67-.1-.73.19-1.58.86-2.57l1.9-2.57-.33-.33-6.98,3.23c-.35,1.27-.41,2.11-.19,2.52.22.38.95.68,2.19.9,1.46.25,3.69.54,6.7.85,1.84.22,3.01-.46,3.52-2.04.1-.38.33-.82.71-1.33.19-.25.51-.66.95-1.23ZM11.83,85.03c5.45.89,10.2,1.46,14.25,1.71l4.61.19c.48,0,1.19.05,2.14.14.79,0,1.49-.1,2.09-.29.57-.16.92,0,1.05.48.16.54-.1.9-.76,1.09-.22.1-.62.1-1.19,0-5-.35-8.76-.6-11.26-.76-4.5-.35-8.25-.76-11.26-1.24-.41-.03-.71-.08-.9-.14-.35-.06-.46-.32-.33-.76.16-.51.68-.65,1.57-.43ZM43.47,72.44c-.76-.7-1.33-1.06-1.71-1.09-.44-.03-.98.27-1.62.9-2.15,2.06-3.8,4.21-4.94,6.46,2.06.57,3.53.73,4.42.48.86-.32,1.84-1.27,2.95-2.85l.95-1.19c1.05-.95,1.03-1.85-.05-2.71ZM46.51,75.53c-.67-.48-1.19-.52-1.57-.14-1.14,1.14-1.88,2.3-2.23,3.47,1.58.22,2.57.22,2.95,0,.38-.19.76-.92,1.14-2.19.13-.48.03-.86-.29-1.14ZM46.61,88.02c-.16.16-.35.22-.57.19-1.14,0-2.01-.02-2.61-.05-.98-.1-1.82-.38-2.52-.85.6-.22,1.41-.36,2.42-.43,1.2-.06,2.03-.16,2.47-.29.22-.03.43.02.62.14.22.16.35.4.38.71.06.22,0,.41-.19.57Z"/>
  </g>
</svg>