<?xml version="1.0" encoding="utf-8"?>
<!-- Generator: Adobe Illustrator 28.2.0, SVG Export Plug-In . SVG Version: 6.00 Build 0)  -->
<svg version="1.1" id="Layer_1" xmlns="http://www.w3.org/2000/svg" xmlns:xlink="http://www.w3.org/1999/xlink" x="0px" y="0px"
	 viewBox="0 0 805 600" style="enable-background:new 0 0 805 600;" xml:space="preserve">
<style type="text/css">
	.st0{fill:#EAB464;}
	.st1{fill:#D9B880;}
	.st2{fill:#CDBA94;}
	.st3{fill:#C1BDA8;}
	.st4{fill:#BFBDAC;}
	.st5{fill:#BCBEB0;}
	.st6{fill:#BCBEB1;}
	.st7{fill:#BABEB4;}
	.st8{fill:#B9BFB5;}
	.st9{fill:#B8BFB7;}
	.st10{fill:#B5BFBC;}
	.st11{fill:#B2C0C2;}
	.st12{fill:#B0C0C4;}
	.st13{fill:#AFC1C6;}
	.st14{fill:#AFC1C7;}
	.st15{fill:#AEC1C7;}
	.st16{fill:#AEC1C8;}
	.st17{fill:#ADC1CA;}
	.st18{fill:#ACC1CA;}
	.st19{fill:#ACC2CC;}
	.st20{fill:#ABC2CD;}
	.st21{fill:#A9C2CF;}
	.st22{fill:#A9C2D0;}
	.st23{fill:#A9C2D1;}
	.st24{fill:#A8C2D1;}
	.st25{fill:#A8C2D2;}
	.st26{fill:#A7C2D3;}
	.st27{fill:#A7C3D4;}
	.st28{fill:#A6C3D5;}
	.st29{fill:#A5C3D6;}
	.st30{fill:#A5C3D7;}
	.st31{fill:#A4C3D8;}
	.st32{fill:#A4C3D9;}
	.st33{fill:#A3C3D9;}
	.st34{fill:#A3C3DA;}
	.st35{fill:#A3C3DB;}
	.st36{fill:#A2C3DB;}
	.st37{fill:#A2C4DB;}
	.st38{fill:#A2C4DC;}
	.st39{fill:#A1C4DD;}
	.st40{fill:#A1C4DE;}
	.st41{fill:#A0C4DE;}
	.st42{fill:#A0C4DF;}
	.st43{font-family:'Athelas-Regular';}
	.st44{font-size:17px;}
	.st45{font-size:16px;}
	.st46{font-size:15px;}
	.st47{font-size:14px;}
	.st48{font-size:12px;}
	.st49{font-size:11px;}
	.st50{font-size:10px;}
	.st51{font-size:8px;}
	.st52{font-size:9px;}
	.st53{font-size:7px;}
	.st54{fill:#AAC2CF;}
	.st55{fill:#AAC2CE;}
	.st56{fill:#ABC2CC;}
	.st57{fill:#ACC1CB;}
	.st58{fill:#ADC1C9;}
	.st59{fill:#B0C1C5;}
	.st60{fill:#B0C1C4;}
	.st61{fill:#B1C0C3;}
	.st62{fill:#B1C0C2;}
	.st63{fill:#B2C0C1;}
	.st64{fill:#B2C0C0;}
	.st65{fill:#B3C0C0;}
	.st66{fill:#B3C0BF;}
	.st67{fill:#B4C0BE;}
	.st68{fill:#B4C0BD;}
	.st69{fill:#B5C0BD;}
	.st70{fill:#B6BFBB;}
	.st71{fill:#B6BFBA;}
	.st72{fill:#B7BFB9;}
	.st73{fill:#B7BFB8;}
	.st74{fill:#B9BFB6;}
	.st75{fill:#B9BEB5;}
	.st76{fill:#BABEB3;}
	.st77{fill:#BBBEB3;}
	.st78{fill:#BBBEB2;}
	.st79{fill:#BBBEB1;}
	.st80{fill:#BDBEAF;}
	.st81{fill:#BDBEAE;}
	.st82{fill:#BEBEAE;}
	.st83{fill:#BEBDAD;}
	.st84{fill:#BFBDAB;}
	.st85{fill:#C0BDAA;}
	.st86{fill:#C0BDA9;}
	.st87{fill:#C2BDA7;}
	.st88{fill:#C2BDA6;}
	.st89{fill:#C3BCA5;}
	.st90{fill:#C3BCA4;}
	.st91{fill:#C4BCA4;}
	.st92{fill:#C4BCA3;}
	.st93{fill:#C4BCA2;}
	.st94{fill:#C5BCA2;}
	.st95{fill:#C5BCA1;}
	.st96{fill:#C6BCA1;}
	.st97{fill:#C6BCA0;}
	.st98{fill:#C6BC9F;}
	.st99{fill:#C7BC9F;}
	.st100{fill:#C7BC9E;}
	.st101{fill:#C8BB9D;}
	.st102{fill:#C8BB9C;}
	.st103{fill:#C9BB9B;}
	.st104{fill:#CABB9A;}
	.st105{fill:#CABB99;}
	.st106{fill:#CBBB98;}
	.st107{fill:#CBBB97;}
	.st108{fill:#CCBB96;}
	.st109{fill:#CCBA95;}
	.st110{fill:#CDBA95;}
	.st111{fill:#CEBA93;}
	.st112{fill:#CEBA92;}
	.st113{fill:#CFBA92;}
	.st114{fill:#CFBA91;}
	.st115{fill:#CFBA90;}
	.st116{fill:#D0BA90;}
	.st117{fill:#D0BA8F;}
	.st118{fill:#D1BA8E;}
	.st119{fill:#D1B98E;}
	.st120{fill:#D1B98D;}
	.st121{fill:#D2B98C;}
	.st122{fill:#D3B98B;}
	.st123{fill:#D3B98A;}
	.st124{fill:#D4B989;}
	.st125{fill:#D4B988;}
	.st126{fill:#D5B987;}
	.st127{fill:#D5B886;}
	.st128{fill:#D6B886;}
	.st129{fill:#D6B885;}
	.st130{fill:#D7B884;}
	.st131{fill:#D7B883;}
	.st132{fill:#D8B883;}
	.st133{fill:#D8B882;}
	.st134{fill:#D8B881;}
	.st135{fill:#D9B881;}
	.st136{fill:#DAB87F;}
	.st137{fill:#DAB77F;}
	.st138{fill:#DAB77E;}
	.st139{fill:#DBB77D;}
	.st140{fill:#DCB77C;}
	.st141{fill:#DCB77B;}
	.st142{fill:#DDB77A;}
	.st143{fill:#DDB779;}
	.st144{fill:#DEB778;}
	.st145{fill:#DFB677;}
	.st146{fill:#DFB676;}
	.st147{fill:#E0B675;}
	.st148{fill:#E0B674;}
	.st149{fill:#E1B674;}
	.st150{fill:#E1B673;}
	.st151{fill:#E1B672;}
	.st152{fill:#E2B672;}
	.st153{fill:#E2B671;}
	.st154{fill:#E3B670;}
	.st155{fill:#E3B56F;}
	.st156{fill:#E4B56E;}
	.st157{fill:#E5B56D;}
	.st158{fill:#E5B56C;}
	.st159{fill:#E6B56B;}
	.st160{fill:#E6B56A;}
	.st161{fill:#E7B569;}
	.st162{fill:#E8B568;}
	.st163{fill:#E8B467;}
	.st164{fill:#E9B466;}
	.st165{fill:#E9B465;}
	.st166{fill:#EAB465;}
</style>
<g id="Layer_1_00000047767744382229388630000004357395881230994365_">
	<g id="nodes">
		<g id="every" transform="translate(334.43701539458385,280.14780818701786)">
			<path id="p_669.682393251976" class="st0" d="M20,76.1C-11,76.1-36.1,51-36.1,20S-11-36.1,20-36.1l0,0C51-36.1,76.1-11,76.1,20
				S51,76.1,20,76.1L20,76.1z"/>
		</g>
		<g id="often" transform="translate(442.28619659292843,280.14780818701786)">
			<path id="p_771.2629226174432" class="st1" d="M20,69.8c-27.5,0-49.8-22.3-49.8-49.8S-7.5-29.8,20-29.8l0,0
				c27.5,0,49.8,22.3,49.8,49.8S47.5,69.8,20,69.8L20,69.8z"/>
		</g>
		<g id="in" transform="translate(394.1495168621407,363.7198888647302)">
			<path id="p_801.5617292301221" class="st2" d="M20,64.7c-24.7,0-44.7-20-44.7-44.7s20-44.7,44.7-44.7l0,0
				c24.7,0,44.7,20,44.7,44.7S44.7,64.7,20,64.7L20,64.7z"/>
		</g>
		<g id="always" transform="translate(393.80383435274,203.73379865624761)">
			<path id="p_635.2826529153281" class="st3" d="M20,58.7c-21.4,0-38.7-17.3-38.7-38.7S-1.4-18.7,20-18.7S58.7-1.4,58.7,20
				S41.4,58.7,20,58.7z"/>
		</g>
		<g id="all" transform="translate(317.4874912656269,185.9460546802339)">
			<path id="p_540.1277367283191" class="st4" d="M20,57.7c-20.8,0-37.7-16.9-37.7-37.7S-0.8-17.7,20-17.7l0,0
				c20.8,0,37.7,16.9,37.7,37.7S40.8,57.7,20,57.7L20,57.7z"/>
		</g>
		<g id="new" transform="translate(311.57520922288484,371.7008978719426)">
			<path id="p_718.6201929994107" class="st5" d="M20,56.3C-0.1,56.3-16.3,40-16.3,20S-0.1-16.3,20-16.3l0,0
				C40.1-16.3,56.3,0,56.3,20S40.1,56.3,20,56.3L20,56.3z"/>
		</g>
		<g id="our" transform="translate(470.0291589824198,197.05570411446305)">
			<path id="p_701.9344486003972" class="st6" d="M20,55.8c-19.8,0-35.9-16-35.9-35.8s16-35.9,35.8-35.9l0,0
				c19.8,0,35.9,16,35.9,35.8C55.9,39.8,39.8,55.8,20,55.8L20,55.8z"/>
		</g>
		<g id="and" transform="translate(475.70799423495384,360.22288408898106)">
			<path id="p_869.9492750841378" class="st7" d="M20,55C0.7,55-15,39.3-15,20S0.7-15,20-15S55,0.7,55,20S39.3,55,20,55z"/>
		</g>
		<g id="some" transform="translate(257.15256279147593,229.134388022925)">
			<path id="p_519.8693637161772" class="st8" d="M20,54.6C0.9,54.6-14.6,39.1-14.6,20S0.9-14.6,20-14.6S54.6,0.9,54.6,20
				S39.1,54.6,20,54.6z"/>
		</g>
		<g id="under" transform="translate(255.06720359112472,326.6790146070847)">
			<path id="p_614.7298688661866" class="st9" d="M20,54C1.2,54-14,38.8-14,20S1.2-14,20-14S54,1.2,54,20S38.8,54,20,54z"/>
		</g>
		<g id="surely" transform="translate(519.2743836799845,246.7313307944506)">
			<path id="p_797.1817021750826" class="st10" d="M20,52.2C2.2,52.2-12.2,37.8-12.2,20S2.2-12.2,20-12.2l0,0
				c17.8,0,32.2,14.4,32.2,32.2S37.8,52.2,20,52.2L20,52.2z"/>
		</g>
		<g id="a" transform="translate(525.6952146506505,312.6105187564545)">
			<path id="p_869.398399463267" class="st10" d="M20,52.1C2.3,52.1-12.1,37.7-12.1,20S2.3-12.1,20-12.1S52.1,2.3,52.1,20
				S37.7,52.1,20,52.1z"/>
		</g>
		<g id="many" transform="translate(367.89427864586673,138.15404142863684)">
			<path id="p_534.893085053896" class="st11" d="M20,49.8C3.5,49.8-9.8,36.5-9.8,20S3.5-9.8,20-9.8S49.8,3.5,49.8,20
				S36.5,49.8,20,49.8z"/>
		</g>
		<g id="sally" transform="translate(429.5707829550977,144.09746595880458)">
			<path id="p_601.540213127126" class="st12" d="M20,48.9C4.1,48.9-8.9,35.9-8.9,20S4.1-8.9,20-8.9S48.9,4.1,48.9,20
				S35.9,48.9,20,48.9z"/>
		</g>
		<g id="love" transform="translate(351.2588742104216,424.96122141506834)">
			<path id="p_803.3721035138065" class="st13" d="M20,48.2C4.5,48.2-8.2,35.6-8.2,20S4.4-8.1,20-8.2l0,0C35.5-8.2,48.2,4.4,48.2,20
				C48.2,35.5,35.6,48.1,20,48.2L20,48.2z"/>
		</g>
		<g id="eagerly" transform="translate(445.5580184412131,417.47994323154387)">
			<path id="p_889.806931197467" class="st14" d="M20,47.8C4.7,47.8-7.8,35.3-7.8,20S4.7-7.8,20-7.8S47.8,4.7,47.8,20
				S35.3,47.8,20,47.8z"/>
		</g>
		<g id="cats" transform="translate(215.22550130782264,277.4233680830765)">
			<path id="p_519.0945570071951" class="st15" d="M20,47.4C4.8,47.4-7.4,35.2-7.4,20S4.8-7.4,20-7.4l0,0C35.2-7.4,47.4,4.8,47.4,20
				S35.2,47.4,20,47.4L20,47.4z"/>
		</g>
		<g id="people" transform="translate(404.40151961305696,91.86656451957805)">
			<path id="p_522.4523782920376" class="st16" d="M20,47.2C5,47.2-7.2,35-7.2,20S5-7.2,20-7.2l0,0C35-7.2,47.2,5,47.2,20
				S35,47.2,20,47.2L20,47.2z"/>
		</g>
		<g id="never" transform="translate(401.00502407245284,451.0826638596356)">
			<path id="p_877.2002552091569" class="st17" d="M20,46.1C5.6,46.1-6.1,34.4-6.1,20S5.6-6.1,20-6.1l0,0C34.4-6.1,46.1,5.6,46.1,20
				S34.4,46.1,20,46.1L20,46.1z"/>
		</g>
		<g id="the" transform="translate(254.78261694767863,166.6987522216223)">
			<path id="p_446.45686165560886" class="st18" d="M20,46C5.7,46-6,34.3-6,20S5.7-6,20-6S46,5.7,46,20S34.3,46,20,46z"/>
		</g>
		<g id="individuals" transform="translate(250.01034092484136,387.72575712352204)">
			<path id="p_662.0855830606254" class="st19" d="M20,45.3C6,45.4-5.4,34-5.4,20S6-5.3,20-5.3l0,0C34-5.4,45.4,6,45.4,20
				S34,45.3,20,45.3L20,45.3z"/>
		</g>
		<g id="everyone" transform="translate(532.1592549902259,189.20632352572937)">
			<path id="p_745.2172692182141" class="st20" d="M20,44.9C6.3,44.9-4.9,33.7-4.9,20S6.3-4.9,20-4.9S44.9,6.3,44.9,20
				S33.7,44.9,20,44.9z"/>
		</g>
		<g id="elephants" transform="translate(313.8620493580411,121.72379788835698)">
			<path id="p_459.29346896253156" class="st20" d="M20,44.7C6.4,44.7-4.7,33.6-4.7,20S6.4-4.7,20-4.7l0,0
				C33.6-4.7,44.7,6.4,44.7,20S33.6,44.7,20,44.7L20,44.7z"/>
		</g>
		<g id="are" transform="translate(483.55779910269445,137.15528575038346)">
			<path id="p_643.3499598927683" class="st21" d="M20,43.6C6.9,43.6-3.6,33.1-3.6,20S6.9-3.6,20-3.6S43.6,6.9,43.6,20
				S33.1,43.6,20,43.6z"/>
		</g>
		<g id="sometimes" transform="translate(535.148347628129,368.97953312799973)">
			<path id="p_926.2686886933872" class="st22" d="M20,43.1C7.2,43.1-3.1,32.8-3.1,20S7.2-3.1,20-3.1l0,0C32.8-3.1,43.1,7.2,43.1,20
				S32.8,43.1,20,43.1L20,43.1z"/>
		</g>
		<g id="nurturing" transform="translate(298.68117551060664,431.5016154948588)">
			<path id="p_752.0910221058647" class="st23" d="M20,42.9C7.3,42.9-2.9,32.7-2.9,20S7.3-2.9,20-2.9l0,0C32.7-2.9,42.9,7.3,42.9,20
				S32.7,42.9,20,42.9L20,42.9z"/>
		</g>
		<g id="effortlessly" transform="translate(498.12826296776086,415.7140801481105)">
			<path id="p_935.7505742162706" class="st23" d="M20,42.9C7.3,42.9-2.9,32.7-2.9,20S7.3-2.9,20-2.9l0,0C32.7-2.9,42.9,7.3,42.9,20
				S32.7,42.9,20,42.9L20,42.9z"/>
		</g>
		<g id="usually" transform="translate(568.156660924931,275.2911256682598)">
			<path id="p_864.9630514687442" class="st24" d="M20,42.5C7.6,42.5-2.5,32.4-2.5,20S7.6-2.5,20-2.5S42.5,7.6,42.5,20
				S32.4,42.5,20,42.5z"/>
		</g>
		<g id="can" transform="translate(265.0934528963951,117.55437374025155)">
			<path id="p_403.96401364405995" class="st25" d="M20,42.3C7.7,42.3-2.3,32.3-2.3,20S7.7-2.3,20-2.3l0,0c12.3,0,22.3,10,22.3,22.3
				S32.3,42.3,20,42.3L20,42.3z"/>
		</g>
		<g id="eventually" transform="translate(251.9598808409271,437.19559316554324)">
			<path id="p_710.3915308197465" class="st25" d="M20,42.2C7.7,42.2-2.2,32.3-2.2,20S7.7-2.2,20-2.2S42.2,7.7,42.2,20
				S32.3,42.2,20,42.2z"/>
		</g>
		<g id="regularly" transform="translate(531.1701671238418,140.2863002169231)">
			<path id="p_692.6121041552791" class="st25" d="M20,42.2C7.8,42.2-2.2,32.2-2.2,20S7.8-2.2,20-2.2l0,0c12.2,0,22.2,9.9,22.2,22.2
				S32.2,42.2,20,42.2L20,42.2z"/>
		</g>
		<g id="understanding" transform="translate(544.9477379719475,415.0053126221827)">
			<path id="p_980.9469652698642" class="st25" d="M20,42C7.9,42-2,32.1-2,20S7.8-2,20-2l0,0c12.1,0,22,9.8,22,22
				C42,32.1,32.2,42,20,42L20,42z"/>
		</g>
		<g id="over" transform="translate(198.65445387825955,228.807672719527)">
			<path id="p_448.45604127352055" class="st25" d="M20,42C7.9,42-2,32.1-2,20S7.8-2,20-2l0,0c12.1,0,22,9.8,22,22
				C42,32.1,32.2,42,20,42L20,42z"/>
		</g>
		<g id="to" transform="translate(197.67920950865152,325.1713261744269)">
			<path id="p_543.3519868686125" class="st26" d="M20,41.5C8.1,41.5-1.5,31.9-1.5,20S8.1-1.5,20-1.5S41.5,8.1,41.5,20
				S31.9,41.5,20,41.5z"/>
		</g>
		<g id="yearly" transform="translate(209.39378956736587,185.10908502754742)">
			<path id="p_414.58515396292603" class="st27" d="M20,41.1C8.4,41.1-1.1,31.6-1.1,20S8.4-1.1,20-1.1S41.1,8.4,41.1,20
				S31.6,41.1,20,41.1z"/>
		</g>
		<g id="yearning" transform="translate(567.1944297451286,220.78739282762461)">
			<path id="p_807.3755143370754" class="st28" d="M20,40.4C8.7,40.4-0.4,31.3-0.4,20S8.7-0.4,20-0.4l0,0c11.3,0,20.4,9.1,20.4,20.4
				S31.3,40.4,20,40.4L20,40.4z"/>
		</g>
		<g id="roam" transform="translate(207.35997938743523,367.4526272142207)">
			<path id="p_593.7638663123914" class="st29" d="M20,40C9,40,0,31,0,20S9,0,20,0l0,0c11,0,20,9,20,20S31,40,20,40L20,40z"/>
		</g>
		<g id="everywhere" transform="translate(348.23204247873116,90.41563754820149)">
			<path id="p_457.5092707008596" class="st29" d="M20,39.9C9,39.9,0.1,31,0.1,20S9,0.1,20,0.1l0,0C31,0.1,39.9,9,39.9,20
				S31,39.9,20,39.9L20,39.9z"/>
		</g>
		<g id="rarely" transform="translate(456.12147367767636,100.95680831300604)">
			<path id="p_575.9398726646093" class="st29" d="M20,39.9C9,39.9,0.1,31,0.1,20S9,0.1,20,0.1l0,0C31,0.1,39.9,9,39.9,20
				S31,39.9,20,39.9L20,39.9z"/>
		</g>
		<g id="nightly" transform="translate(359.29405659422576,473.8791838187892)">
			<path id="p_851.6720317681797" class="st30" d="M20,39.5C9.2,39.5,0.5,30.8,0.5,20S9.2,0.5,20,0.5l0,0c10.8,0,19.5,8.7,19.5,19.5
				S30.8,39.5,20,39.5L20,39.5z"/>
		</g>
		<g id="on" transform="translate(445.9110166126877,466.66913120134484)">
			<path id="p_931.0789391691973" class="st30" d="M20,39.5C9.2,39.5,0.5,30.8,0.5,20S9.2,0.5,20,0.5l0,0c10.8,0,19.5,8.7,19.5,19.5
				S30.8,39.5,20,39.5L20,39.5z"/>
		</g>
		<g id="wild" transform="translate(569.3541221842517,341.90474532222737)">
			<path id="p_928.8196612623049" class="st31" d="M20,38.6C9.7,38.6,1.4,30.3,1.4,20S9.7,1.4,20,1.4S38.6,9.7,38.6,20
				S30.3,38.6,20,38.6z"/>
		</g>
		<g id="around" transform="translate(319.60517779243855,469.46016246042393)">
			<path id="p_806.5779866026692" class="st31" d="M20,38.5C9.8,38.5,1.5,30.2,1.5,20S9.8,1.5,20,1.5S38.5,9.8,38.5,20
				S30.2,38.5,20,38.5z"/>
		</g>
		<g id="determined" transform="translate(484.63256799182705,456.90305168593443)">
			<path id="p_959.0482660275682" class="st31" d="M20,38.5C9.8,38.5,1.5,30.2,1.5,20S9.8,1.5,20,1.5S38.5,9.8,38.5,20
				S30.2,38.5,20,38.5z"/>
		</g>
		<g id="inspiring" transform="translate(599.043093536984,245.86625968028454)">
			<path id="p_862.1304436081653" class="st32" d="M20,38.2C9.9,38.2,1.8,30.1,1.8,20S9.9,1.8,20,1.8S38.2,9.9,38.2,20
				S30.1,38.2,20,38.2z"/>
		</g>
		<g id="nature" transform="translate(591.9343603929761,310.5904814846815)">
			<path id="p_919.6477046505927" class="st32" d="M20,38.1C10,38.1,1.9,30,1.9,20S10,1.9,20,1.9S38.1,10,38.1,20S30,38.1,20,38.1z"
				/>
		</g>
		<g id="observing" transform="translate(442.1876122627559,63.613879020069874)">
			<path id="p_522.8750400520448" class="st32" d="M20,38.1C10,38.1,1.9,30,1.9,20S10,1.9,20,1.9l0,0C30,1.9,38.1,10,38.1,20
				S30,38.1,20,38.1L20,38.1z"/>
		</g>
		<g id="interesting" transform="translate(371.5075582879331,58.18192102090751)">
			<path id="p_446.6639941887127" class="st32" d="M20,38c-9.9,0-18-8-18-18S10,2,20,2l0,0c9.9,0,18,8,18,18C38,29.9,29.9,38,20,38
				L20,38z"/>
		</g>
		<g id="only" transform="translate(170.9483434417617,293.75561074635084)">
			<path id="p_481.5288865932257" class="st33" d="M20,37.8c-9.8,0-17.8-8-17.8-17.8S10.2,2.2,20,2.2l0,0c9.8,0,17.8,8,17.8,17.8
				S29.8,37.8,20,37.8L20,37.8z"/>
		</g>
		<g id="is" transform="translate(167.40116357405384,256.40123532136585)">
			<path id="p_440.5771907443713" class="st33" d="M20,37.8c-9.8,0-17.8-8-17.8-17.8S10.2,2.2,20,2.2s17.8,8,17.8,17.8
				S29.8,37.8,20,37.8z"/>
		</g>
		<g id="intense" transform="translate(575.981992537545,181.7743643937389)">
			<path id="p_774.4304409337708" class="st34" d="M20,37.7c-9.8,0-17.7-7.9-17.7-17.7S10.2,2.3,20,2.3S37.7,10.2,37.7,20
				S29.8,37.7,20,37.7z"/>
		</g>
		<g id="life" transform="translate(495.1579023703711,95.55941742318299)">
			<path id="p_607.3408340672075" class="st34" d="M20,37.6c-9.7,0-17.6-7.9-17.6-17.6S10.3,2.4,20,2.4l0,0
				c9.7,0,17.6,7.9,17.6,17.6S29.7,37.6,20,37.6L20,37.6z"/>
		</g>
		<g id="animals" transform="translate(311.05276736324487,77.66100944763491)">
			<path id="p_405.2357137873408" class="st34" d="M20,37.5c-9.7,0-17.5-7.8-17.5-17.5S10.3,2.5,20,2.5S37.5,10.3,37.5,20
				S29.7,37.5,20,37.5z"/>
		</g>
		<g id="silently" transform="translate(391.51123451116524,495.4827267328853)">
			<path id="p_903.3624184434445" class="st34" d="M20,37.4c-9.6,0-17.4-7.8-17.4-17.4S10.4,2.6,20,2.6l0,0
				c9.6,0,17.4,7.8,17.4,17.4S29.6,37.4,20,37.4L20,37.4z"/>
		</g>
		<g id="lions" transform="translate(576.2281288767116,378.9698112758076)">
			<path id="p_971.4115491746647" class="st34" d="M20,37.2c-9.5,0-17.2-7.7-17.2-17.2S10.5,2.8,20,2.8S37.2,10.5,37.2,20
				S29.5,37.2,20,37.2z"/>
		</g>
		<g id="creating" transform="translate(427.59886230891254,500.6297822725155)">
			<path id="p_944.3903270628747" class="st34" d="M20,37.2c-9.5,0-17.2-7.7-17.2-17.2S10.5,2.8,20,2.8l0,0
				c9.5,0,17.2,7.7,17.2,17.2S29.5,37.2,20,37.2L20,37.2z"/>
		</g>
		<g id="tirelessly" transform="translate(209.73181581181737,406.3639584551109)">
			<path id="p_632.2053726146598" class="st34" d="M20,37.1c-9.4,0-17.1-7.7-17.1-17.1S10.6,2.9,20,2.9S37.1,10.6,37.1,20
				S29.4,37.1,20,37.1z"/>
		</g>
		<g id="underneath" transform="translate(215.1297467545737,145.40672194610042)">
			<path id="p_376.6460670484056" class="st34" d="M20,37.1c-9.4,0-17.1-7.7-17.1-17.1S10.6,2.9,20,2.9S37.1,10.6,37.1,20
				S29.4,37.1,20,37.1z"/>
		</g>
		<g id="navigate" transform="translate(571.9343110946625,145.39713449385326)">
			<path id="p_733.3363970931247" class="st34" d="M20,37c-9.4,0-17-7.6-17-17S10.6,3,20,3s17,7.6,17,17S29.4,37,20,37z"/>
		</g>
		<g id="each" transform="translate(531.4103719669031,99.3090170597446)">
			<path id="p_646.6190457014891" class="st35" d="M20,36.9c-9.3,0-16.9-7.6-16.9-16.9S10.7,3.1,20,3.1l0,0
				c9.3,0,16.9,7.6,16.9,16.9S29.3,36.9,20,36.9L20,36.9z"/>
		</g>
		<g id="enjoy" transform="translate(224.56824934968702,110.79138977614494)">
			<path id="p_351.20640159682955" class="st35" d="M20,36.8c-9.3,0-16.8-7.5-16.8-16.8S10.7,3.2,20,3.2l0,0
				c9.3,0,16.8,7.5,16.8,16.8C36.9,29.3,29.3,36.8,20,36.8L20,36.8z"/>
		</g>
		<g id="experiences" transform="translate(274.92143944337585,77.82599041821044)">
			<path id="p_368.4345037762761" class="st36" d="M20,36.7c-9.2,0-16.7-7.5-16.7-16.7S10.8,3.3,20,3.3l0,0
				c9.2,0,16.7,7.5,16.7,16.7S29.2,36.7,20,36.7L20,36.7z"/>
		</g>
		<g id="their" transform="translate(282.69830618665736,469.58650294658764)">
			<path id="p_767.7565569440007" class="st37" d="M20,36.5c-9.1,0-16.5-7.4-16.5-16.5S10.9,3.5,20,3.5S36.5,10.9,36.5,20
				S29.1,36.5,20,36.5z"/>
		</g>
		<g id="night" transform="translate(211.6898096191865,441.70507517916263)">
			<path id="p_668.75790701292" class="st37" d="M20,36.4C11,36.4,3.6,29,3.6,20S11,3.6,20,3.6S36.4,11,36.4,20S29,36.4,20,36.4z"/>
		</g>
		<g id="offering" transform="translate(248.87721646054538,477.59994001774646)">
			<path id="p_741.8401786928627" class="st37" d="M20,36.4C11,36.4,3.6,29,3.6,20S11,3.6,20,3.6S36.4,11,36.4,20S29,36.4,20,36.4z"
				/>
		</g>
		<g id="apples" transform="translate(520.7983023379207,450.10900106447076)">
			<path id="p_986.2703256169624" class="st37" d="M20,36.4C11,36.4,3.6,29,3.6,20S11,3.6,20,3.6S36.4,11,36.4,20S29,36.4,20,36.4z"
				/>
		</g>
		<g id="unique" transform="translate(585.1355873617354,413.2770008211222)">
			<path id="p_1013.7209757800802" class="st37" d="M20,36.3C11,36.3,3.7,29,3.7,20S11,3.7,20,3.7S36.3,11,36.3,20S29,36.3,20,36.3z
				"/>
		</g>
		<g id="tigers" transform="translate(555.0824140341745,453.8191699405317)">
			<path id="p_1024.1001495307871" class="st38" d="M20,36.2c-8.9,0-16.2-7.3-16.2-16.2S11.1,3.8,20,3.8l0,0
				c8.9,0,16.2,7.3,16.2,16.2S28.9,36.2,20,36.2L20,36.2z"/>
		</g>
		<g id="navigating" transform="translate(171.49676703853632,354.83727105585956)">
			<path id="p_541.4774124659872" class="st38" d="M20,36.1c-8.9,0-16.1-7.2-16.1-16.1S11.1,3.9,20,3.9l0,0
				c8.9,0,16.1,7.2,16.1,16.1S28.9,36.1,20,36.1L20,36.1z"/>
		</g>
		<g id="victorious" transform="translate(172.6365870682221,198.41953679186543)">
			<path id="p_386.14411771041125" class="st38" d="M20,36.1c-8.9,0-16.1-7.2-16.1-16.1S11.1,3.9,20,3.9l0,0
				c8.9,0,16.1,7.2,16.1,16.1S28.9,36.1,20,36.1L20,36.1z"/>
		</g>
		<g id="time" transform="translate(610.9205794612006,279.97801111430584)">
			<path id="p_905.8752474905641" class="st38" d="M20,36c-8.8,0-16-7.2-16-16S11.2,4,20,4l0,0c8.8,0,16,7.2,16,16S28.8,36,20,36
				L20,36z"/>
		</g>
		<g id="learning" transform="translate(335.11042322379535,502.4058888356143)">
			<path id="p_852.4929689744673" class="st38" d="M20,36c-8.8,0-16-7.2-16-16S11.2,4,20,4l0,0c8.8,0,16,7.2,16,16S28.8,36,20,36
				L20,36z"/>
		</g>
		<g id="need" transform="translate(473.72580089601644,491.58451391757467)">
			<path id="p_980.2310112873062" class="st38" d="M20,35.9c-8.8,0-15.9-7.1-15.9-15.9S11.2,4.1,20,4.1S35.9,11.2,35.9,20
				S28.8,35.9,20,35.9z"/>
		</g>
		<g id="rabbits" transform="translate(605.7081645186275,343.81477485933937)">
			<path id="p_964.443635851682" class="st38" d="M20,35.9c-8.8,0-15.9-7.1-15.9-15.9S11.2,4.1,20,4.1S35.9,11.2,35.9,20
				S28.8,35.9,20,35.9z"/>
		</g>
		<g id="old" transform="translate(602.231924930026,205.61647011869837)">
			<path id="p_822.7129336879306" class="st38" d="M20,35.9c-8.8,0-15.9-7.1-15.9-15.9S11.2,4.1,20,4.1l0,0
				c8.8,0,15.9,7.1,15.9,15.9S28.8,35.9,20,35.9L20,35.9z"/>
		</g>
		<g id="rapidly" transform="translate(477.7352571235751,65.05774449588131)">
			<path id="p_557.373715222125" class="st38" d="M20,35.6c-8.6,0-15.6-7-15.6-15.6S11.4,4.4,20,4.4s15.6,7,15.6,15.6
				S28.6,35.6,20,35.6z"/>
		</g>
		<g id="leaving" transform="translate(155.21985675676407,325.3895528408031)">
			<path id="p_495.19012320023575" class="st38" d="M20,35.6c-8.6,0-15.6-7-15.6-15.6S11.4,4.4,20,4.4s15.6,7,15.6,15.6
				S28.6,35.6,20,35.6z"/>
		</g>
		<g id="various" transform="translate(628.624564052057,225.939410074674)">
			<path id="p_869.087300007324" class="st38" d="M20,35.5c-8.6,0-15.5-6.9-15.5-15.5S11.4,4.5,20,4.5l0,0c8.6,0,15.5,6.9,15.5,15.5
				S28.6,35.5,20,35.5L20,35.5z"/>
		</g>
		<g id="roaming" transform="translate(610.6355375986268,376.6402813592767)">
			<path id="p_1001.6256944126163" class="st39" d="M20,35.3c-8.5,0-15.4-6.9-15.4-15.3c0-8.5,6.9-15.4,15.3-15.4l0,0
				c8.5,0,15.4,6.9,15.4,15.3C35.4,28.5,28.5,35.3,20,35.3L20,35.3z"/>
		</g>
		<g id="owls" transform="translate(336.55861188859546,54.080103908938156)">
			<path id="p_404.9303372453036" class="st39" d="M20,35.3c-8.4,0-15.3-6.8-15.3-15.3c0-8.4,6.8-15.3,15.3-15.3l0,0
				c8.4,0,15.3,6.8,15.3,15.3C35.3,28.4,28.4,35.3,20,35.3L20,35.3z"/>
		</g>
		<g id="yearnings" transform="translate(364.7247400124147,517.263697701924)">
			<path id="p_896.2215823840581" class="st39" d="M20,35.2c-8.4,0-15.2-6.8-15.2-15.2S11.6,4.8,20,4.8l0,0
				c8.4,0,15.2,6.8,15.2,15.2S28.4,35.2,20,35.2L20,35.2z"/>
		</g>
		<g id="trees" transform="translate(152.90509435304543,224.88031591126014)">
			<path id="p_391.7823678436086" class="st39" d="M20,35c-8.3,0-15-6.7-15-15S11.7,5,20,5s15,6.7,15,15S28.3,35,20,35z"/>
		</g>
		<g id="really" transform="translate(179.22614957826087,391.2843643897023)">
			<path id="p_584.5074715472662" class="st39" d="M20,35c-8.3,0-15-6.7-15-15S11.7,5,20,5s15,6.7,15,15S28.3,35,20,35z"/>
		</g>
		<g id="tiny" transform="translate(299.34811364314066,498.5307501162306)">
			<path id="p_811.8758213386742" class="st39" d="M20,35c-8.3,0-15-6.7-15-15S11.7,5,20,5s15,6.7,15,15S28.3,35,20,35z"/>
		</g>
		<g id="energy" transform="translate(404.7664430140298,47.82376116502385)">
			<path id="p_466.52753147218465" class="st39" d="M20,34.9c-8.2,0-14.9-6.7-14.9-14.9S11.8,5.1,20,5.1S34.9,11.8,34.9,20
				S28.2,34.9,20,34.9z"/>
		</g>
		<g id="inspire" transform="translate(183.38091483930634,157.48756254317664)">
			<path id="p_354.80580467561396" class="st39" d="M20,34.9c-8.2,0-14.9-6.7-14.9-14.9S11.8,5.1,20,5.1S34.9,11.8,34.9,20
				S28.2,34.9,20,34.9z"/>
		</g>
		<g id="squirrels" transform="translate(431.3644935261425,30.39920761587652)">
			<path id="p_475.70102843515" class="st39" d="M20,34.9c-8.2,0-14.9-6.7-14.9-14.9S11.8,5.1,20,5.1S34.9,11.8,34.9,20
				S28.2,34.9,20,34.9z"/>
		</g>
		<g id="of" transform="translate(509.98639862786683,481.39662641043435)">
			<path id="p_1005.2003718559849" class="st39" d="M20,34.8c-8.2,0-14.8-6.6-14.8-14.8S11.8,5.2,20,5.2S34.8,11.8,34.8,20
				S28.2,34.8,20,34.8z"/>
		</g>
		<g id="landscapes" transform="translate(456.0394352130307,518.9702274618174)">
			<path id="p_988.766653450146" class="st39" d="M20,34.8c-8.2,0-14.8-6.6-14.8-14.8S11.8,5.2,20,5.2l0,0c8.2,0,14.8,6.6,14.8,14.8
				S28.2,34.8,20,34.8L20,34.8z"/>
		</g>
		<g id="light" transform="translate(149.89922921895226,379.4731151193205)">
			<path id="p_543.0687311992984" class="st40" d="M20,34.7c-8.1,0-14.7-6.6-14.7-14.7S11.9,5.3,20,5.3S34.7,11.9,34.7,20
				S28.1,34.7,20,34.7z"/>
		</g>
		<g id="naturally" transform="translate(313.52481097886147,526.5849189232256)">
			<path id="p_853.6227866734581" class="st40" d="M20,34.5C12,34.5,5.5,28,5.5,20S12,5.5,20,5.5S34.5,12,34.5,20S28,34.5,20,34.5z"
				/>
		</g>
		<g id="observe" transform="translate(155.16429067620464,171.06066384085636)">
			<path id="p_339.676384442011" class="st40" d="M20,34.5C12,34.5,5.5,28,5.5,20S12,5.5,20,5.5l0,0c8,0,14.5,6.5,14.5,14.4
				C34.5,28,28,34.5,20,34.5L20,34.5z"/>
		</g>
		<g id="quietly" transform="translate(140.7347984757759,277.73321600386157)">
			<path id="p_431.91944440458747" class="st40" d="M20,34.5C12,34.5,5.5,28,5.5,20S12,5.5,20,5.5l0,0c8,0,14.5,6.5,14.5,14.4
				C34.5,28,28,34.5,20,34.5L20,34.5z"/>
		</g>
		<g id="offer" transform="translate(499.6150499504424,510.6817729372912)">
			<path id="p_1023.6242039090212" class="st40" d="M20,34.3c-7.9,0-14.3-6.4-14.3-14.3S12.1,5.7,20,5.7S34.3,12.1,34.3,20
				S27.9,34.3,20,34.3z"/>
		</g>
		<g id="little" transform="translate(626.2331805196586,308.3344297910621)">
			<path id="p_947.8949913320082" class="st40" d="M20,34.3c-7.9,0-14.3-6.4-14.3-14.3S12.1,5.7,20,5.7S34.3,12.1,34.3,20
				S27.9,34.3,20,34.3z"/>
		</g>
		<g id="environments" transform="translate(561.15837130259,113.93643058804298)">
			<path id="p_688.4221829119205" class="st40" d="M20,34.3c-7.9,0-14.3-6.4-14.3-14.3S12.1,5.7,20,5.7S34.3,12.1,34.3,20
				S27.9,34.3,20,34.3z"/>
		</g>
		<g id="eagles" transform="translate(242.37652718553778,82.89397283437131)">
			<path id="p_338.5978810411965" class="st40" d="M20,34.3c-7.9,0-14.3-6.4-14.3-14.3S12.1,5.7,20,5.7S34.3,12.1,34.3,20
				S27.9,34.3,20,34.3z"/>
		</g>
		<g id="unicorns" transform="translate(405.77201584091216,525.9267048521533)">
			<path id="p_945.026101714353" class="st40" d="M20,34.3c-7.9,0-14.3-6.4-14.3-14.3S12.1,5.7,20,5.7S34.3,12.1,34.3,20
				S27.9,34.3,20,34.3z"/>
		</g>
		<g id="natural" transform="translate(636.9825360887892,336.82645242105923)">
			<path id="p_987.0112371692176" class="st40" d="M20,34.2c-7.8,0-14.2-6.4-14.2-14.2S12.2,5.8,20,5.8S34.2,12.2,34.2,20
				S27.8,34.2,20,34.2z"/>
		</g>
		<g id="yield" transform="translate(633.276064205058,257.1163488727824)">
			<path id="p_903.4684170219987" class="st41" d="M20,34.1c-7.8,0-14.1-6.3-14.1-14.1S12.2,5.9,20,5.9l0,0
				c7.8,0,14.1,6.3,14.1,14.1S27.8,34.1,20,34.1L20,34.1z"/>
		</g>
		<g id="making" transform="translate(608.7948623663492,174.50139385549437)">
			<path id="p_796.308711290912" class="st41" d="M20,34c-7.7,0-14-6.3-14-14S12.3,6,20,6s14,6.3,14,14S27.7,34,20,34z"/>
		</g>
		<g id="very" transform="translate(604.8692174397959,144.8121990704212)">
			<path id="p_762.6938715792855" class="st41" d="M20,34c-7.7,0-14-6.3-14-14S12.3,6,20,6s14,6.3,14,14S27.7,34,20,34z"/>
		</g>
		<g id="carefully" transform="translate(292.09741507401054,50.091620525548535)">
			<path id="p_355.2014906686275" class="st41" d="M20,34c-7.7,0-14-6.3-14-14S12.3,6,20,6s14,6.3,14,14S27.7,34,20,34z"/>
		</g>
		<g id="lingering" transform="translate(516.7941464287405,69.90679947447808)">
			<path id="p_599.713400972287" class="st41" d="M20,34c-7.7,0-14-6.3-14-14S12.3,6,20,6s14,6.3,14,14S27.7,34,20,34z"/>
		</g>
		<g id="great" transform="translate(315.31637782106554,31.278880018752034)">
			<path id="p_359.5438745127843" class="st41" d="M20,33.9c-7.7,0-13.9-6.2-14-13.9S12.3,6.1,20,6.1l0,0c7.7,0,13.9,6.2,14,13.9
				C34,27.7,27.7,33.9,20,33.9L20,33.9z"/>
		</g>
		<g id="into" transform="translate(217.05267292340224,473.3597784428074)">
			<path id="p_703.2325066172849" class="st42" d="M20,33.8c-7.6,0-13.8-6.2-13.8-13.8S12.4,6.2,20,6.2l0,0
				c7.6,0,13.8,6.2,13.8,13.8S27.6,33.8,20,33.8L20,33.8z"/>
		</g>
		<g id="intricate" transform="translate(501.34714648005945,44.47527654920117)">
			<path id="p_558.6424782803358" class="st42" d="M20,33.8c-7.6,0-13.8-6.2-13.8-13.8S12.4,6.2,20,6.2l0,0
				c7.6,0,13.8,6.2,13.8,13.8S27.6,33.8,20,33.8L20,33.8z"/>
		</g>
		<g id="yellow" transform="translate(130.61345261166974,306.1117636928269)">
			<path id="p_449.4805402617677" class="st42" d="M20,33.8c-7.6,0-13.8-6.2-13.8-13.8S12.4,6.2,20,6.2l0,0
				c7.6,0,13.8,6.2,13.8,13.8S27.6,33.8,20,33.8L20,33.8z"/>
		</g>
		<g id="open" transform="translate(193.5863735169757,120.69011149457748)">
			<path id="p_327.03180896882424" class="st42" d="M20,33.8c-7.6,0-13.8-6.2-13.8-13.8S12.4,6.2,20,6.2l0,0
				c7.6,0,13.8,6.2,13.8,13.8S27.6,33.8,20,33.8L20,33.8z"/>
		</g>
		<g id="everyday" transform="translate(268.94168531883383,502.5808392188009)">
			<path id="p_784.2778484949058" class="st42" d="M20,33.8c-7.6,0-13.8-6.2-13.8-13.8S12.4,6.2,20,6.2l0,0
				c7.6,0,13.8,6.2,13.8,13.8S27.6,33.8,20,33.8L20,33.8z"/>
		</g>
		<g id="innovative" transform="translate(180.90467584582342,421.8482457854637)">
			<path id="p_615.4432082315076" class="st42" d="M20,33.7c-7.6,0-13.7-6.1-13.7-13.7S12.4,6.3,20,6.3l0,0
				c7.6,0,13.7,6.1,13.7,13.7S27.6,33.7,20,33.7L20,33.7z"/>
		</g>
		<g id="several" transform="translate(181.14070956765016,451.15056205162807)">
			<path id="p_644.9815582194987" class="st42" d="M20,33.7c-7.6,0-13.7-6.1-13.7-13.7S12.4,6.3,20,6.3l0,0
				c7.6,0,13.7,6.1,13.7,13.7S27.6,33.7,20,33.7L20,33.7z"/>
		</g>
		<g id="helping" transform="translate(585.7021708618413,445.19334006880393)">
			<path id="p_1043.5857975308659" class="st42" d="M20,33.7c-7.6,0-13.7-6.1-13.7-13.7S12.4,6.3,20,6.3l0,0
				c7.6,0,13.7,6.1,13.7,13.7S27.6,33.7,20,33.7L20,33.7z"/>
		</g>
		<g id="tranquility" transform="translate(354.72799346786087,29.16157352868757)">
			<path id="p_396.5145057935809" class="st42" d="M20,33.6c-7.5,0-13.6-6.1-13.6-13.6S12.5,6.4,20,6.4S33.6,12.5,33.6,20
				S27.5,33.6,20,33.6z"/>
		</g>
		<g id="even" transform="translate(166.57610869378172,132.05271905558305)">
			<path id="p_311.25376654639723" class="st42" d="M20,33.6c-7.5,0-13.6-6.1-13.6-13.6S12.5,6.4,20,6.4S33.6,12.5,33.6,20
				S27.5,33.6,20,33.6z"/>
		</g>
		<g id="exploring" transform="translate(381.3668630589624,543.1576348862596)">
			<path id="p_937.1494367422545" class="st42" d="M20,33.6c-7.5,0-13.6-6.1-13.6-13.6S12.5,6.4,20,6.4S33.6,12.5,33.6,20
				S27.5,33.6,20,33.6z"/>
		</g>
		<g id="samantha" transform="translate(540.2826117710508,481.83027791989514)">
			<path id="p_1034.6721657501455" class="st42" d="M20,33.6c-7.5,0-13.6-6.1-13.6-13.6S12.5,6.4,20,6.4l0,0
				c7.5,0,13.6,6.1,13.6,13.6S27.5,33.6,20,33.6L20,33.6z"/>
		</g>
		<g id="nuances" transform="translate(616.2117258156943,406.8965938750644)">
			<path id="p_1035.6016134797594" class="st42" d="M20,33.5c-7.5,0-13.5-6-13.5-13.5S12.5,6.5,20,6.5s13.5,6,13.5,13.5
				S27.5,33.5,20,33.5z"/>
		</g>
		<g id="notions" transform="translate(383.603348666463,26.064920310767974)">
			<path id="p_422.16156276623167" class="st42" d="M20,33.5c-7.5,0-13.5-6-13.5-13.5S12.5,6.5,20,6.5s13.5,6,13.5,13.5
				S27.5,33.5,20,33.5z"/>
		</g>
		<g id="take" transform="translate(463.3075275564522,37.62353050105952)">
			<path id="p_513.4243518465125" class="st42" d="M20,33.5c-7.5,0-13.5-6-13.5-13.5S12.5,6.5,20,6.5s13.5,6,13.5,13.5
				S27.5,33.5,20,33.5z"/>
		</g>
		<g id="routinely" transform="translate(133.93340488365166,248.6505120784163)">
			<path id="p_395.0772107510687" class="st42" d="M20,33.5c-7.5,0-13.5-6-13.5-13.5S12.5,6.5,20,6.5s13.5,6,13.5,13.5
				S27.5,33.5,20,33.5z"/>
		</g>
		<g id="reaching" transform="translate(138.75182060052245,351.5714758668851)">
			<path id="p_502.7502837431515" class="st42" d="M20,33.4c-7.4,0-13.4-6-13.4-13.4S12.6,6.6,20,6.6s13.4,6,13.4,13.4
				S27.4,33.4,20,33.4z"/>
		</g>
		<g id="i" transform="translate(341.4666121172615,537.1224164594572)">
			<path id="p_891.0160158524626" class="st42" d="M20,33.4c-7.4,0-13.4-6-13.4-13.4S12.6,6.6,20,6.6s13.4,6,13.4,13.4
				S27.4,33.4,20,33.4z"/>
		</g>
	</g>
	<g id="labels">
		<g transform="translate(334.43701539458385,280.14780818701786)">
			<text transform="matrix(1 0 0 1 -0.575 22.0359)" class="st43 st44">every</text>
		</g>
		<g transform="translate(442.28619659292843,280.14780818701786)">
			<text transform="matrix(1 0 0 1 3.8794 23)" class="st43 st45">often</text>
		</g>
		<g transform="translate(394.1495168621407,363.7198888647302)">
			<text transform="matrix(1 0 0 1 11.1084 22)" class="st43 st46">in</text>
		</g>
		<g transform="translate(393.80383435274,203.73379865624761)">
			<text transform="matrix(1 0 0 1 1.7168 22)" class="st43 st47">always</text>
		</g>
		<g transform="translate(317.4874912656269,185.9460546802339)">
			<text transform="matrix(1 0 0 1 12.9976 22)" class="st43 st47">all</text>
		</g>
		<g transform="translate(311.57520922288484,371.7008978719426)">
			<text transform="matrix(1 0 0 1 8.8276 22)" class="st43 st47">new</text>
		</g>
		<g transform="translate(470.0291589824198,197.05570411446305)">
			<text transform="matrix(1 0 0 1 10.7734 22)" class="st43 st47">our</text>
		</g>
		<g transform="translate(475.70799423495384,360.22288408898106)">
			<text transform="matrix(1 0 0 1 10.6577 22)" class="st43 st48">and</text>
		</g>
		<g transform="translate(257.15256279147593,229.134388022925)">
			<text transform="matrix(1 0 0 1 7.7734 22)" class="st43 st49">some</text>
		</g>
		<g transform="translate(255.06720359112472,326.6790146070847)">
			<text transform="matrix(1 0 0 1 7.2119 22)" class="st43 st49">under</text>
		</g>
		<g transform="translate(519.2743836799845,246.7313307944506)">
			<text transform="matrix(1 0 0 1 7.6626 22)" class="st43 st50">surely</text>
		</g>
		<g transform="translate(525.6952146506505,312.6105187564545)">
			<text transform="matrix(1 0 0 1 18.2192 22)" class="st43 st50">a</text>
		</g>
		<g transform="translate(367.89427864586673,138.15404142863684)">
			<text transform="matrix(1 0 0 1 8.7734 22)" class="st43 st50">many</text>
		</g>
		<g transform="translate(429.5707829550977,144.09746595880458)">
			<text transform="matrix(1 0 0 1 10.9976 22)" class="st43 st50">sally</text>
		</g>
		<g transform="translate(351.2588742104216,424.96122141506834)">
			<text transform="matrix(1 0 0 1 11.8276 22)" class="st43 st50">love</text>
		</g>
		<g transform="translate(445.5580184412131,417.47994323154387)">
			<text transform="matrix(1 0 0 1 4.6011 22)" class="st43 st50">eagerly</text>
		</g>
		<g transform="translate(215.22550130782264,277.4233680830765)">
			<text transform="matrix(1 0 0 1 11.8301 22)" class="st43 st50">cats</text>
		</g>
		<g transform="translate(404.40151961305696,91.86656451957805)">
			<text transform="matrix(1 0 0 1 5.9854 22)" class="st43 st50">people</text>
		</g>
		<g transform="translate(401.00502407245284,451.0826638596356)">
			<text transform="matrix(1 0 0 1 8.4927 22)" class="st43 st50">never</text>
		</g>
		<g transform="translate(254.78261694767863,166.6987522216223)">
			<text transform="matrix(1 0 0 1 14.0493 22)" class="st43 st50">the</text>
		</g>
		<g transform="translate(250.01034092484136,387.72575712352204)">
			<text transform="matrix(1 0 0 1 -2.3472 22)" class="st43 st50">individuals</text>
		</g>
		<g transform="translate(532.1592549902259,189.20632352572937)">
			<text transform="matrix(1 0 0 1 0.4312 22)" class="st43 st50">everyone</text>
		</g>
		<g transform="translate(313.8620493580411,121.72379788835698)">
			<text transform="matrix(1 0 0 1 -0.6846 22)" class="st43 st50">elephants</text>
		</g>
		<g transform="translate(483.55779910269445,137.15528575038346)">
			<text transform="matrix(1 0 0 1 13.7734 22)" class="st43 st50">are</text>
		</g>
		<g transform="translate(535.148347628129,368.97953312799973)">
			<text transform="matrix(1 0 0 1 -2.1724 22)" class="st43 st50">sometimes</text>
		</g>
		<g transform="translate(298.68117551060664,431.5016154948588)">
			<text transform="matrix(1 0 0 1 1.2661 22)" class="st43 st50">nurturing</text>
		</g>
		<g transform="translate(498.12826296776086,415.7140801481105)">
			<text transform="matrix(1 0 0 1 2.4902 22.0137)" class="st43 st51">effortlessly</text>
		</g>
		<g transform="translate(568.156660924931,275.2911256682598)">
			<text transform="matrix(1 0 0 1 5.436 22)" class="st43 st50">usually</text>
		</g>
		<g transform="translate(265.0934528963951,117.55437374025155)">
			<text transform="matrix(1 0 0 1 12.9385 22)" class="st43 st50">can</text>
		</g>
		<g transform="translate(251.9598808409271,437.19559316554324)">
			<text transform="matrix(1 0 0 1 -1.5146 22)" class="st43 st50">eventually</text>
		</g>
		<g transform="translate(531.1701671238418,140.2863002169231)">
			<text transform="matrix(1 0 0 1 1.8252 22)" class="st43 st50">regularly</text>
		</g>
		<g transform="translate(544.9477379719475,415.0053126221827)">
			<text transform="matrix(1 0 0 1 -3.9059 22.7223)" class="st43 st51">understanding</text>
		</g>
		<g transform="translate(198.65445387825955,228.807672719527)">
			<text transform="matrix(1 0 0 1 11.2734 22)" class="st43 st50">over</text>
		</g>
		<g transform="translate(197.67920950865152,325.1713261744269)">
			<text transform="matrix(1 0 0 1 16.8301 22)" class="st43 st50">to</text>
		</g>
		<g transform="translate(209.39378956736587,185.10908502754742)">
			<text transform="matrix(1 0 0 1 7.6626 22)" class="st43 st50">yearly</text>
		</g>
		<g transform="translate(567.1944297451286,220.78739282762461)">
			<text transform="matrix(1 0 0 1 1.8203 22)" class="st43 st50">yearning</text>
		</g>
		<g transform="translate(207.35997938743523,367.4526272142207)">
			<text transform="matrix(1 0 0 1 9.6084 22)" class="st43 st50">roam</text>
		</g>
		<g transform="translate(348.23204247873116,90.41563754820149)">
			<text transform="matrix(1 0 0 1 -4.8447 22)" class="st43 st50">everywhere</text>
		</g>
		<g transform="translate(456.12147367767636,100.95680831300604)">
			<text transform="matrix(1 0 0 1 8.4976 22)" class="st43 st50">rarely</text>
		</g>
		<g transform="translate(359.29405659422576,473.8791838187892)">
			<text transform="matrix(1 0 0 1 6.5469 22)" class="st43 st50">nightly</text>
		</g>
		<g transform="translate(445.9110166126877,466.66913120134484)">
			<text transform="matrix(1 0 0 1 15.4385 22)" class="st43 st50">on</text>
		</g>
		<g transform="translate(569.3541221842517,341.90474532222737)">
			<text transform="matrix(1 0 0 1 12.3867 22)" class="st43 st50">wild</text>
		</g>
		<g transform="translate(319.60517779243855,469.46016246042393)">
			<text transform="matrix(1 0 0 1 5.4312 22)" class="st43 st50">around</text>
		</g>
		<g transform="translate(484.63256799182705,456.90305168593443)">
			<text transform="matrix(1 0 0 1 -2.0146 22)" class="st43 st52">determined</text>
		</g>
		<g transform="translate(599.043093536984,245.86625968028454)">
			<text transform="matrix(1 0 0 1 2.3794 22)" class="st43 st50">inspiring</text>
		</g>
		<g transform="translate(591.9343603929761,310.5904814846815)">
			<text transform="matrix(1 0 0 1 6.8228 22)" class="st43 st50">nature</text>
		</g>
		<g transform="translate(442.1876122627559,63.613879020069874)">
			<text transform="matrix(1 0 0 1 1.3203 22)" class="st43 st52">observing</text>
		</g>
		<g transform="translate(371.5075582879331,58.18192102090751)">
			<text transform="matrix(1 0 0 1 -2.0688 22)" class="st43 st50">interesting</text>
		</g>
		<g transform="translate(170.9483434417617,293.75561074635084)">
			<text transform="matrix(1 0 0 1 11.8276 22)" class="st43 st50">only</text>
		</g>
		<g transform="translate(167.40116357405384,256.40123532136585)">
			<text transform="matrix(1 0 0 1 17.3892 22)" class="st43 st50">is</text>
		</g>
		<g transform="translate(575.981992537545,181.7743643937389)">
			<text transform="matrix(1 0 0 1 4.877 22)" class="st43 st50">intense</text>
		</g>
		<g transform="translate(495.1579023703711,95.55941742318299)">
			<text transform="matrix(1 0 0 1 14.6084 22)" class="st43 st50">life</text>
		</g>
		<g transform="translate(311.05276736324487,77.66100944763491)">
			<text transform="matrix(1 0 0 1 3.771 22)" class="st43 st50">animals</text>
		</g>
		<g transform="translate(391.51123451116524,495.4827267328853)">
			<text transform="matrix(1 0 0 1 5.7168 22)" class="st43 st50">silently</text>
		</g>
		<g transform="translate(576.2281288767116,378.9698112758076)">
			<text transform="matrix(1 0 0 1 10.7168 22)" class="st43 st50">lions</text>
		</g>
		<g transform="translate(427.59886230891254,500.6297822725155)">
			<text transform="matrix(1 0 0 1 3.2119 22)" class="st43 st50">creating</text>
		</g>
		<g transform="translate(209.73181581181737,406.3639584551109)">
			<text transform="matrix(1 0 0 1 1.5518 22)" class="st43 st50">tirelessly</text>
		</g>
		<g transform="translate(215.1297467545737,145.40672194610042)">
			<text transform="matrix(1 0 0 1 -4.3003 22)" class="st43 st50">underneath</text>
		</g>
		<g transform="translate(571.9343110946625,145.39713449385326)">
			<text transform="matrix(1 0 0 1 2.0962 22)" class="st43 st50">navigate</text>
		</g>
		<g transform="translate(531.4103719669031,99.3090170597446)">
			<text transform="matrix(1 0 0 1 10.1577 22)" class="st43 st50">each</text>
		</g>
		<g transform="translate(224.56824934968702,110.79138977614494)">
			<text transform="matrix(1 0 0 1 9.0469 22)" class="st43 st50">enjoy</text>
		</g>
		<g transform="translate(274.92143944337585,77.82599041821044)">
			<text transform="matrix(1 0 0 1 3.0396 22)" class="st43 st53">experiences</text>
		</g>
		<g transform="translate(282.69830618665736,469.58650294658764)">
			<text transform="matrix(1 0 0 1 11.2734 22)" class="st43 st50">their</text>
		</g>
		<g transform="translate(211.6898096191865,441.70507517916263)">
			<text transform="matrix(1 0 0 1 10.1577 22)" class="st43 st50">night</text>
		</g>
		<g transform="translate(248.87721646054538,477.59994001774646)">
			<text transform="matrix(1 0 0 1 4.4131 22)" class="st43 st50">offering</text>
		</g>
		<g transform="translate(520.7983023379207,450.10900106447076)">
			<text transform="matrix(1 0 0 1 6.2661 22)" class="st43 st50">apples</text>
		</g>
		<g transform="translate(585.1355873617354,413.2770008211222)">
			<text transform="matrix(1 0 0 1 5.9854 22)" class="st43 st50">unique</text>
		</g>
		<g transform="translate(555.0824140341745,453.8191699405317)">
			<text transform="matrix(1 0 0 1 8.7734 22)" class="st43 st50">tigers</text>
		</g>
		<g transform="translate(171.49676703853632,354.83727105585956)">
			<text transform="matrix(1 0 0 1 4.2046 22)" class="st43 st51">navigating</text>
		</g>
		<g transform="translate(172.6365870682221,198.41953679186543)">
			<text transform="matrix(1 0 0 1 -0.1182 22)" class="st43 st50">victorious</text>
		</g>
		<g transform="translate(610.9205794612006,279.97801111430584)">
			<text transform="matrix(1 0 0 1 11.5542 22)" class="st43 st50">time</text>
		</g>
		<g transform="translate(335.11042322379535,502.4058888356143)">
			<text transform="matrix(1 0 0 1 5.2095 22)" class="st43 st52">learning</text>
		</g>
		<g transform="translate(473.72580089601644,491.58451391757467)">
			<text transform="matrix(1 0 0 1 9.877 22)" class="st43 st50">need</text>
		</g>
		<g transform="translate(605.7081645186275,343.81477485933937)">
			<text transform="matrix(1 0 0 1 5.9927 22)" class="st43 st50">rabbits</text>
		</g>
		<g transform="translate(602.231924930026,205.61647011869837)">
			<text transform="matrix(1 0 0 1 14.3276 22)" class="st43 st50">old</text>
		</g>
		<g transform="translate(477.7352571235751,65.05774449588131)">
			<text transform="matrix(1 0 0 1 6.271 22)" class="st43 st50">rapidly</text>
		</g>
		<g transform="translate(155.21985675676407,325.3895528408031)">
			<text transform="matrix(1 0 0 1 5.1553 22)" class="st43 st50">leaving</text>
		</g>
		<g transform="translate(628.624564052057,225.939410074674)">
			<text transform="matrix(1 0 0 1 4.8818 22)" class="st43 st50">various</text>
		</g>
		<g transform="translate(610.6355375986268,376.6402813592767)">
			<text transform="matrix(1 0 0 1 2.936 22)" class="st43 st50">roaming</text>
		</g>
		<g transform="translate(336.55861188859546,54.080103908938156)">
			<text transform="matrix(1 0 0 1 10.9976 22)" class="st43 st50">owls</text>
		</g>
		<g transform="translate(364.7247400124147,517.263697701924)">
			<text transform="matrix(1 0 0 1 1.3203 22)" class="st43 st52">yearnings</text>
		</g>
		<g transform="translate(152.90509435304543,224.88031591126014)">
			<text transform="matrix(1 0 0 1 9.8843 22)" class="st43 st50">trees</text>
		</g>
		<g transform="translate(179.22614957826087,391.2843643897023)">
			<text transform="matrix(1 0 0 1 9.0518 22)" class="st43 st50">really</text>
		</g>
		<g transform="translate(299.34811364314066,498.5307501162306)">
			<text transform="matrix(1 0 0 1 13.2192 22)" class="st43 st50">tiny</text>
		</g>
		<g transform="translate(404.7664430140298,47.82376116502385)">
			<text transform="matrix(1 0 0 1 5.7119 22)" class="st43 st50">energy</text>
		</g>
		<g transform="translate(183.38091483930634,157.48756254317664)">
			<text transform="matrix(1 0 0 1 6.271 22)" class="st43 st50">inspire</text>
		</g>
		<g transform="translate(431.3644935261425,30.39920761587652)">
			<text transform="matrix(1 0 0 1 2.106 22)" class="st43 st50">squirrels</text>
		</g>
		<g transform="translate(509.98639862786683,481.39662641043435)">
			<text transform="matrix(1 0 0 1 16.8301 22)" class="st43 st50">of</text>
		</g>
		<g transform="translate(456.0394352130307,518.9702274618174)">
			<text transform="matrix(1 0 0 1 0.7046 22)" class="st43 st51">landscapes</text>
		</g>
		<g transform="translate(149.89922921895226,379.4731151193205)">
			<text transform="matrix(1 0 0 1 11.8276 22)" class="st43 st50">light</text>
		</g>
		<g transform="translate(313.52481097886147,526.5849189232256)">
			<text transform="matrix(1 0 0 1 2.1011 22)" class="st43 st52">naturally</text>
		</g>
		<g transform="translate(155.16429067620464,171.06066384085636)">
			<text transform="matrix(1 0 0 1 3.2119 22)" class="st43 st50">observe</text>
		</g>
		<g transform="translate(140.7347984757759,277.73321600386157)">
			<text transform="matrix(1 0 0 1 6.5469 22)" class="st43 st50">quietly</text>
		</g>
		<g transform="translate(499.6150499504424,510.6817729372912)">
			<text transform="matrix(1 0 0 1 11.0854 22)" class="st43 st50">offer</text>
		</g>
		<g transform="translate(626.2331805196586,308.3344297910621)">
			<text transform="matrix(1 0 0 1 12.1084 22)" class="st43 st50">little</text>
		</g>
		<g transform="translate(561.15837130259,113.93643058804298)">
			<text transform="matrix(1 0 0 1 1.9854 22)" class="st43 st53">environments</text>
		</g>
		<g transform="translate(242.37652718553778,82.89397283437131)">
			<text transform="matrix(1 0 0 1 6.2661 22)" class="st43 st50">eagles</text>
		</g>
		<g transform="translate(405.77201584091216,525.9267048521533)">
			<text transform="matrix(1 0 0 1 4.1011 22)" class="st43 st52">unicorns</text>
		</g>
		<g transform="translate(636.9825360887892,336.82645242105923)">
			<text transform="matrix(1 0 0 1 5.7119 22)" class="st43 st50">natural</text>
		</g>
		<g transform="translate(633.276064205058,257.1163488727824)">
			<text transform="matrix(1 0 0 1 10.7168 22)" class="st43 st50">yield</text>
		</g>
		<g transform="translate(608.7948623663492,174.50139385549437)">
			<text transform="matrix(1 0 0 1 4.8818 22)" class="st43 st50">making</text>
		</g>
		<g transform="translate(604.8692174397959,144.8121990704212)">
			<text transform="matrix(1 0 0 1 11.5542 22)" class="st43 st50">very</text>
		</g>
		<g transform="translate(292.09741507401054,50.091620525548535)">
			<text transform="matrix(1 0 0 1 2.3818 22)" class="st43 st50">carefully</text>
		</g>
		<g transform="translate(516.7941464287405,69.90679947447808)">
			<text transform="matrix(1 0 0 1 2.0986 22)" class="st43 st50">lingering</text>
		</g>
		<g transform="translate(315.31637782106554,31.278880018752034)">
			<text transform="matrix(1 0 0 1 9.6035 22)" class="st43 st50">great</text>
		</g>
		<g transform="translate(217.05267292340224,473.3597784428074)">
			<text transform="matrix(1 0 0 1 12.9385 22)" class="st43 st50">into</text>
		</g>
		<g transform="translate(501.34714648005945,44.47527654920117)">
			<text transform="matrix(1 0 0 1 3.4927 22)" class="st43 st50">intricate</text>
		</g>
		<g transform="translate(130.61345261166974,306.1117636928269)">
			<text transform="matrix(1 0 0 1 7.106 22)" class="st43 st50">yellow</text>
		</g>
		<g transform="translate(193.5863735169757,120.69011149457748)">
			<text transform="matrix(1 0 0 1 9.877 22)" class="st43 st50">open</text>
		</g>
		<g transform="translate(268.94168531883383,502.5808392188009)">
			<text transform="matrix(1 0 0 1 0.7119 22)" class="st43 st50">everyday</text>
		</g>
		<g transform="translate(180.90467584582342,421.8482457854637)">
			<text transform="matrix(1 0 0 1 -1.5146 22)" class="st43 st50">innovative</text>
		</g>
		<g transform="translate(181.14070956765016,451.15056205162807)">
			<text transform="matrix(1 0 0 1 4.8818 22)" class="st43 st50">several</text>
		</g>
		<g transform="translate(585.7021708618413,445.19334006880393)">
			<text transform="matrix(1 0 0 1 4.8745 22)" class="st43 st50">helping</text>
		</g>
		<g transform="translate(354.72799346786087,29.16157352868757)">
			<text transform="matrix(1 0 0 1 5.6011 22)" class="st43 st53">tranquility</text>
		</g>
		<g transform="translate(166.57610869378172,132.05271905558305)">
			<text transform="matrix(1 0 0 1 10.1577 22)" class="st43 st50">even</text>
		</g>
		<g transform="translate(381.3668630589624,543.1576348862596)">
			<text transform="matrix(1 0 0 1 2.7095 22)" class="st43 st52">exploring</text>
		</g>
		<g transform="translate(540.2826117710508,481.83027791989514)">
			<text transform="matrix(1 0 0 1 3.042 22)" class="st43 st51">samantha</text>
		</g>
		<g transform="translate(616.2117258156943,406.8965938750644)">
			<text transform="matrix(1 0 0 1 6.0962 22)" class="st43 st51">nuances</text>
		</g>
		<g transform="translate(383.603348666463,26.064920310767974)">
			<text transform="matrix(1 0 0 1 7.877 22)" class="st43 st51">notions</text>
		</g>
		<g transform="translate(463.3075275564522,37.62353050105952)">
			<text transform="matrix(1 0 0 1 11.5493 22)" class="st43 st50">take</text>
		</g>
		<g transform="translate(133.93340488365166,248.6505120784163)">
			<text transform="matrix(1 0 0 1 2.1011 22)" class="st43 st50">routinely</text>
		</g>
		<g transform="translate(138.75182060052245,351.5714758668851)">
			<text transform="matrix(1 0 0 1 4.8203 22)" class="st43 st51">reaching</text>
		</g>
		<g transform="translate(341.4666121172615,537.1224164594572)">
			<text transform="matrix(1 0 0 1 17.8892 23)" class="st43 st50">i</text>
		</g>
	</g>
</g>
<g id="Layer_2_00000096052485828662390390000015274635653323138439_">
	<g>
		<g transform="translate(334.43701539458385,280.14780818701786)">
			<text transform="matrix(1 0 0 1 10.8501 32.8736)" class="st43 st52">1763</text>
		</g>
		<g transform="translate(442.28619659292843,280.14780818701786)">
			<text transform="matrix(1 0 0 1 10.8501 32.8736)" class="st43 st52">1391</text>
		</g>
		<g transform="translate(394.1495168621407,363.7198888647302)">
			<text transform="matrix(1 0 0 1 11.5923 32.8736)" class="st43 st52">1119</text>
		</g>
		<g transform="translate(393.80383435274,203.73379865624761)">
			<text transform="matrix(1 0 0 1 13.6308 32.8736)" class="st43 st52">841</text>
		</g>
		<g transform="translate(317.4874912656269,185.9460546802339)">
			<text transform="matrix(1 0 0 1 13.6308 32.8736)" class="st43 st52">796</text>
		</g>
		<g transform="translate(311.57520922288484,371.7008978719426)">
			<text transform="matrix(1 0 0 1 13.6308 32.8736)" class="st43 st52">740</text>
		</g>
		<g transform="translate(470.0291589824198,197.05570411446305)">
			<text transform="matrix(1 0 0 1 13.6308 32.8736)" class="st43 st52">720</text>
		</g>
		<g transform="translate(475.70799423495384,360.22288408898106)">
			<text transform="matrix(1 0 0 1 13.6308 32.8736)" class="st43 st52">687</text>
		</g>
		<g transform="translate(257.15256279147593,229.134388022925)">
			<text transform="matrix(1 0 0 1 13.6308 32.8736)" class="st43 st52">670</text>
		</g>
		<g transform="translate(255.06720359112472,326.6790146070847)">
			<text transform="matrix(1 0 0 1 13.6308 32.8736)" class="st43 st52">647</text>
		</g>
		<g transform="translate(519.2743836799845,246.7313307944506)">
			<text transform="matrix(1 0 0 1 13.6308 32.8736)" class="st43 st52">580</text>
		</g>
		<g transform="translate(525.6952146506505,312.6105187564545)">
			<text transform="matrix(1 0 0 1 13.6308 32.8736)" class="st43 st52">577</text>
		</g>
		<g transform="translate(367.89427864586673,138.15404142863684)">
			<text transform="matrix(1 0 0 1 13.6308 32.8737)" class="st43 st52">499</text>
		</g>
		<g transform="translate(429.5707829550977,144.09746595880458)">
			<text transform="matrix(1 0 0 1 13.6308 32.8736)" class="st43 st52">467</text>
		</g>
		<g transform="translate(351.2588742104216,424.96122141506834)">
			<text transform="matrix(1 0 0 1 13.6308 32.8736)" class="st43 st52">444</text>
		</g>
		<g transform="translate(445.5580184412131,417.47994323154387)">
			<text transform="matrix(1 0 0 1 13.6308 32.8736)" class="st43 st52">432</text>
		</g>
		<g transform="translate(401.00502407245284,451.0826638596356)">
			<text transform="matrix(1 0 0 1 13.6308 32.8736)" class="st43 st52">382</text>
		</g>
		<g transform="translate(254.78261694767863,166.6987522216223)">
			<text transform="matrix(1 0 0 1 13.6308 32.8736)" class="st43 st52">378</text>
		</g>
		<g transform="translate(250.01034092484136,387.72575712352204)">
			<text transform="matrix(1 0 0 1 13.6308 32.8736)" class="st43 st52">360</text>
		</g>
		<g transform="translate(532.1592549902259,189.20632352572937)">
			<text transform="matrix(1 0 0 1 13.6308 32.8736)" class="st43 st52">346</text>
		</g>
		<g transform="translate(313.8620493580411,121.72379788835698)">
			<text transform="matrix(1 0 0 1 13.6308 32.8736)" class="st43 st52">342</text>
		</g>
		<g transform="translate(483.55779910269445,137.15528575038346)">
			<text transform="matrix(1 0 0 1 13.6308 32.8736)" class="st43 st52">313</text>
		</g>
		<g transform="translate(535.148347628129,368.97953312799973)">
			<text transform="matrix(1 0 0 1 13.6308 32.8736)" class="st43 st52">300</text>
		</g>
		<g transform="translate(298.68117551060664,431.5016154948588)">
			<text transform="matrix(1 0 0 1 13.6308 32.8736)" class="st43 st52">294</text>
		</g>
		<g transform="translate(498.12826296776086,415.7140801481105)">
			<text transform="matrix(1 0 0 1 13.6308 32.8736)" class="st43 st52">294</text>
		</g>
		<g transform="translate(265.0934528963951,117.55437374025155)">
			<text transform="matrix(1 0 0 1 13.6308 32.8736)" class="st43 st52">279</text>
		</g>
		<g transform="translate(251.9598808409271,437.19559316554324)">
			<text transform="matrix(1 0 0 1 13.6308 32.8736)" class="st43 st52">277</text>
		</g>
		<g transform="translate(531.1701671238418,140.2863002169231)">
			<text transform="matrix(1 0 0 1 13.6308 32.8736)" class="st43 st52">275</text>
		</g>
		<g transform="translate(544.9477379719475,415.0053126221827)">
			<text transform="matrix(1 0 0 1 13.6308 32.8736)" class="st43 st52">271</text>
		</g>
		<g transform="translate(359.29405659422576,473.8791838187892)">
			<text transform="matrix(1 0 0 1 13.6308 32.8736)" class="st43 st52">213</text>
		</g>
		<g transform="translate(445.9110166126877,466.66913120134484)">
			<text transform="matrix(1 0 0 1 15.6308 30.8736)" class="st43 st52">213</text>
		</g>
		<g transform="translate(319.60517779243855,469.46016246042393)">
			<text transform="matrix(1 0 0 1 13.6308 32.8736)" class="st43 st52">192</text>
		</g>
		<g transform="translate(484.63256799182705,456.90305168593443)">
			<text transform="matrix(1 0 0 1 13.6308 32.8736)" class="st43 st52">192</text>
		</g>
		<g transform="translate(282.69830618665736,469.58650294658764)">
			<text transform="matrix(1 0 0 1 14.6308 30.8736)" class="st43 st52">152</text>
		</g>
		<g transform="translate(520.7983023379207,450.10900106447076)">
			<text transform="matrix(1 0 0 1 13.6308 32.8736)" class="st43 st52">150</text>
		</g>
	</g>
</g>
<g transform="translate(0,224.5)">
	<rect x="587.6" y="-173.6" class="st42" width="1" height="10"/>
	<text transform="matrix(1 0 0 1 587.5921 -151.6724)" class="st43 st50">101</text>
	<g transform="translate(1,0)">
		<rect x="587.6" y="-173.6" class="st41" width="1" height="10"/>
	</g>
	<g transform="translate(2,0)">
		<rect x="587.6" y="-173.6" class="st40" width="1" height="10"/>
	</g>
	<g transform="translate(3,0)">
		<rect x="587.6" y="-173.6" class="st39" width="1" height="10"/>
	</g>
	<g transform="translate(4,0)">
		<rect x="587.6" y="-173.6" class="st38" width="1" height="10"/>
	</g>
	<g transform="translate(5,0)">
		<rect x="587.6" y="-173.6" class="st38" width="1" height="10"/>
	</g>
	<g transform="translate(6,0)">
		<rect x="587.6" y="-173.6" class="st36" width="1" height="10"/>
	</g>
	<g transform="translate(7,0)">
		<rect x="587.6" y="-173.6" class="st34" width="1" height="10"/>
	</g>
	<g transform="translate(8,0)">
		<rect x="587.6" y="-173.6" class="st34" width="1" height="10"/>
	</g>
	<g transform="translate(9,0)">
		<rect x="587.6" y="-173.6" class="st32" width="1" height="10"/>
	</g>
	<g transform="translate(10,0)">
		<rect x="587.6" y="-173.6" class="st31" width="1" height="10"/>
	</g>
	<g transform="translate(11,0)">
		<rect x="587.6" y="-173.6" class="st31" width="1" height="10"/>
	</g>
	<g transform="translate(12,0)">
		<rect x="587.6" y="-173.6" class="st30" width="1" height="10"/>
	</g>
	<g transform="translate(13,0)">
		<rect x="587.6" y="-173.6" class="st30" width="1" height="10"/>
	</g>
	<g transform="translate(14,0)">
		<rect x="587.6" y="-173.6" class="st29" width="1" height="10"/>
	</g>
	<g transform="translate(15,0)">
		<rect x="587.6" y="-173.6" class="st28" width="1" height="10"/>
	</g>
	<g transform="translate(16,0)">
		<rect x="587.6" y="-173.6" class="st28" width="1" height="10"/>
	</g>
	<g transform="translate(17,0)">
		<rect x="587.6" y="-173.6" class="st27" width="1" height="10"/>
	</g>
	<g transform="translate(18,0)">
		<rect x="587.6" y="-173.6" class="st26" width="1" height="10"/>
	</g>
	<g transform="translate(19,0)">
		<rect x="587.6" y="-173.6" class="st26" width="1" height="10"/>
	</g>
	<g transform="translate(20,0)">
		<rect x="587.6" y="-173.6" class="st25" width="1" height="10"/>
	</g>
	<g transform="translate(21,0)">
		<rect x="587.6" y="-173.6" class="st24" width="1" height="10"/>
	</g>
	<g transform="translate(22,0)">
		<rect x="587.6" y="-173.6" class="st23" width="1" height="10"/>
	</g>
	<g transform="translate(23,0)">
		<rect x="587.6" y="-173.6" class="st22" width="1" height="10"/>
	</g>
	<g transform="translate(24,0)">
		<rect x="587.6" y="-173.6" class="st21" width="1" height="10"/>
	</g>
	<g transform="translate(25,0)">
		<rect x="587.6" y="-173.6" class="st54" width="1" height="10"/>
	</g>
	<g transform="translate(26,0)">
		<rect x="587.6" y="-173.6" class="st55" width="1" height="10"/>
	</g>
	<g transform="translate(27,0)">
		<rect x="587.6" y="-173.6" class="st20" width="1" height="10"/>
	</g>
	<g transform="translate(28,0)">
		<rect x="587.6" y="-173.6" class="st20" width="1" height="10"/>
	</g>
	<g transform="translate(29,0)">
		<rect x="587.6" y="-173.6" class="st56" width="1" height="10"/>
	</g>
	<g transform="translate(30,0)">
		<rect x="587.6" y="-173.6" class="st57" width="1" height="10"/>
	</g>
	<g transform="translate(31,0)">
		<rect x="587.6" y="-173.6" class="st57" width="1" height="10"/>
	</g>
	<g transform="translate(32,0)">
		<rect x="587.6" y="-173.6" class="st17" width="1" height="10"/>
	</g>
	<g transform="translate(33,0)">
		<rect x="587.6" y="-173.6" class="st17" width="1" height="10"/>
	</g>
	<g transform="translate(34,0)">
		<rect x="587.6" y="-173.6" class="st58" width="1" height="10"/>
	</g>
	<g transform="translate(35,0)">
		<rect x="587.6" y="-173.6" class="st16" width="1" height="10"/>
	</g>
	<g transform="translate(36,0)">
		<rect x="587.6" y="-173.6" class="st16" width="1" height="10"/>
	</g>
	<g transform="translate(37,0)">
		<rect x="587.6" y="-173.6" class="st15" width="1" height="10"/>
	</g>
	<g transform="translate(38,0)">
		<rect x="587.6" y="-173.6" class="st13" width="1" height="10"/>
	</g>
	<g transform="translate(39,0)">
		<rect x="587.6" y="-173.6" class="st13" width="1" height="10"/>
	</g>
	<g transform="translate(40,0)">
		<rect x="587.6" y="-173.6" class="st59" width="1" height="10"/>
	</g>
	<g transform="translate(41,0)">
		<rect x="587.6" y="-173.6" class="st60" width="1" height="10"/>
	</g>
	<g transform="translate(42,0)">
		<rect x="587.6" y="-173.6" class="st12" width="1" height="10"/>
	</g>
	<g transform="translate(43,0)">
		<rect x="587.6" y="-173.6" class="st61" width="1" height="10"/>
	</g>
	<g transform="translate(44,0)">
		<rect x="587.6" y="-173.6" class="st62" width="1" height="10"/>
	</g>
	<g transform="translate(45,0)">
		<rect x="587.6" y="-173.6" class="st11" width="1" height="10"/>
	</g>
	<g transform="translate(46,0)">
		<rect x="587.6" y="-173.6" class="st63" width="1" height="10"/>
	</g>
	<g transform="translate(47,0)">
		<rect x="587.6" y="-173.6" class="st64" width="1" height="10"/>
	</g>
	<g transform="translate(48,0)">
		<rect x="587.6" y="-173.6" class="st65" width="1" height="10"/>
	</g>
	<g transform="translate(49,0)">
		<rect x="587.6" y="-173.6" class="st66" width="1" height="10"/>
	</g>
	<g transform="translate(50,0)">
		<rect x="587.6" y="-173.6" class="st67" width="1" height="10"/>
	</g>
	<g transform="translate(51,0)">
		<rect x="587.6" y="-173.6" class="st67" width="1" height="10"/>
	</g>
	<g transform="translate(52,0)">
		<rect x="587.6" y="-173.6" class="st68" width="1" height="10"/>
	</g>
	<g transform="translate(53,0)">
		<rect x="587.6" y="-173.6" class="st69" width="1" height="10"/>
	</g>
	<g transform="translate(54,0)">
		<rect x="587.6" y="-173.6" class="st10" width="1" height="10"/>
	</g>
	<g transform="translate(55,0)">
		<rect x="587.6" y="-173.6" class="st70" width="1" height="10"/>
	</g>
	<g transform="translate(56,0)">
		<rect x="587.6" y="-173.6" class="st70" width="1" height="10"/>
	</g>
	<g transform="translate(57,0)">
		<rect x="587.6" y="-173.6" class="st71" width="1" height="10"/>
	</g>
	<g transform="translate(58,0)">
		<rect x="587.6" y="-173.6" class="st72" width="1" height="10"/>
	</g>
	<g transform="translate(59,0)">
		<rect x="587.6" y="-173.6" class="st72" width="1" height="10"/>
	</g>
	<g transform="translate(60,0)">
		<rect x="587.6" y="-173.6" class="st73" width="1" height="10"/>
	</g>
	<g transform="translate(61,0)">
		<rect x="587.6" y="-173.6" class="st9" width="1" height="10"/>
	</g>
	<g transform="translate(62,0)">
		<rect x="587.6" y="-173.6" class="st9" width="1" height="10"/>
	</g>
	<g transform="translate(63,0)">
		<rect x="587.6" y="-173.6" class="st74" width="1" height="10"/>
	</g>
	<g transform="translate(64,0)">
		<rect x="587.6" y="-173.6" class="st8" width="1" height="10"/>
	</g>
	<g transform="translate(65,0)">
		<rect x="587.6" y="-173.6" class="st75" width="1" height="10"/>
	</g>
	<g transform="translate(66,0)">
		<rect x="587.6" y="-173.6" class="st7" width="1" height="10"/>
	</g>
	<g transform="translate(67,0)">
		<rect x="587.6" y="-173.6" class="st76" width="1" height="10"/>
	</g>
	<g transform="translate(68,0)">
		<rect x="587.6" y="-173.6" class="st77" width="1" height="10"/>
	</g>
	<g transform="translate(69,0)">
		<rect x="587.6" y="-173.6" class="st78" width="1" height="10"/>
	</g>
	<g transform="translate(70,0)">
		<rect x="587.6" y="-173.6" class="st79" width="1" height="10"/>
	</g>
	<g transform="translate(71,0)">
		<rect x="587.6" y="-173.6" class="st6" width="1" height="10"/>
	</g>
	<g transform="translate(72,0)">
		<rect x="587.6" y="-173.6" class="st5" width="1" height="10"/>
	</g>
	<g transform="translate(73,0)">
		<rect x="587.6" y="-173.6" class="st80" width="1" height="10"/>
	</g>
	<g transform="translate(74,0)">
		<rect x="587.6" y="-173.6" class="st80" width="1" height="10"/>
	</g>
	<g transform="translate(75,0)">
		<rect x="587.6" y="-173.6" class="st81" width="1" height="10"/>
	</g>
	<g transform="translate(76,0)">
		<rect x="587.6" y="-173.6" class="st82" width="1" height="10"/>
	</g>
	<g transform="translate(77,0)">
		<rect x="587.6" y="-173.6" class="st83" width="1" height="10"/>
	</g>
	<g transform="translate(78,0)">
		<rect x="587.6" y="-173.6" class="st4" width="1" height="10"/>
	</g>
	<g transform="translate(79,0)">
		<rect x="587.6" y="-173.6" class="st4" width="1" height="10"/>
	</g>
	<g transform="translate(80,0)">
		<rect x="587.6" y="-173.6" class="st84" width="1" height="10"/>
	</g>
	<g transform="translate(81,0)">
		<rect x="587.6" y="-173.6" class="st85" width="1" height="10"/>
	</g>
	<g transform="translate(82,0)">
		<rect x="587.6" y="-173.6" class="st85" width="1" height="10"/>
	</g>
	<g transform="translate(83,0)">
		<rect x="587.6" y="-173.6" class="st86" width="1" height="10"/>
	</g>
	<g transform="translate(84,0)">
		<rect x="587.6" y="-173.6" class="st3" width="1" height="10"/>
	</g>
	<g transform="translate(85,0)">
		<rect x="587.6" y="-173.6" class="st3" width="1" height="10"/>
	</g>
	<g transform="translate(86,0)">
		<rect x="587.6" y="-173.6" class="st87" width="1" height="10"/>
	</g>
	<g transform="translate(87,0)">
		<rect x="587.6" y="-173.6" class="st88" width="1" height="10"/>
	</g>
	<g transform="translate(88,0)">
		<rect x="587.6" y="-173.6" class="st88" width="1" height="10"/>
	</g>
	<g transform="translate(89,0)">
		<rect x="587.6" y="-173.6" class="st89" width="1" height="10"/>
	</g>
	<g transform="translate(90,0)">
		<rect x="587.6" y="-173.6" class="st90" width="1" height="10"/>
	</g>
	<g transform="translate(91,0)">
		<rect x="587.6" y="-173.6" class="st91" width="1" height="10"/>
	</g>
	<g transform="translate(92,0)">
		<rect x="587.6" y="-173.6" class="st92" width="1" height="10"/>
	</g>
	<g transform="translate(93,0)">
		<rect x="587.6" y="-173.6" class="st93" width="1" height="10"/>
	</g>
	<g transform="translate(94,0)">
		<rect x="587.6" y="-173.6" class="st94" width="1" height="10"/>
	</g>
	<g transform="translate(95,0)">
		<rect x="587.6" y="-173.6" class="st95" width="1" height="10"/>
	</g>
	<g transform="translate(96,0)">
		<rect x="587.6" y="-173.6" class="st96" width="1" height="10"/>
	</g>
	<g transform="translate(97,0)">
		<rect x="587.6" y="-173.6" class="st97" width="1" height="10"/>
	</g>
	<g transform="translate(98,0)">
		<rect x="587.6" y="-173.6" class="st98" width="1" height="10"/>
	</g>
	<g transform="translate(99,0)">
		<rect x="587.6" y="-173.6" class="st99" width="1" height="10"/>
	</g>
	<g transform="translate(100,0)">
		<rect x="587.6" y="-173.6" class="st100" width="1" height="10"/>
	</g>
	<g transform="translate(101,0)">
		<rect x="587.6" y="-173.6" class="st101" width="1" height="10"/>
	</g>
	<g transform="translate(102,0)">
		<rect x="587.6" y="-173.6" class="st101" width="1" height="10"/>
	</g>
	<g transform="translate(103,0)">
		<rect x="587.6" y="-173.6" class="st102" width="1" height="10"/>
	</g>
	<g transform="translate(104,0)">
		<rect x="587.6" y="-173.6" class="st103" width="1" height="10"/>
	</g>
	<g transform="translate(105,0)">
		<rect x="587.6" y="-173.6" class="st103" width="1" height="10"/>
	</g>
	<g transform="translate(106,0)">
		<rect x="587.6" y="-173.6" class="st104" width="1" height="10"/>
	</g>
	<g transform="translate(107,0)">
		<rect x="587.6" y="-173.6" class="st105" width="1" height="10"/>
	</g>
	<g transform="translate(108,0)">
		<rect x="587.6" y="-173.6" class="st105" width="1" height="10"/>
	</g>
	<g transform="translate(109,0)">
		<rect x="587.6" y="-173.6" class="st106" width="1" height="10"/>
	</g>
	<g transform="translate(110,0)">
		<rect x="587.6" y="-173.6" class="st107" width="1" height="10"/>
	</g>
	<g transform="translate(111,0)">
		<rect x="587.6" y="-173.6" class="st107" width="1" height="10"/>
	</g>
	<g transform="translate(112,0)">
		<rect x="587.6" y="-173.6" class="st108" width="1" height="10"/>
	</g>
	<g transform="translate(113,0)">
		<rect x="587.6" y="-173.6" class="st109" width="1" height="10"/>
	</g>
	<g transform="translate(114,0)">
		<rect x="587.6" y="-173.6" class="st110" width="1" height="10"/>
	</g>
	<g transform="translate(115,0)">
		<rect x="587.6" y="-173.6" class="st2" width="1" height="10"/>
	</g>
	<g transform="translate(116,0)">
		<rect x="587.6" y="-173.6" class="st2" width="1" height="10"/>
	</g>
	<g transform="translate(117,0)">
		<rect x="587.6" y="-173.6" class="st111" width="1" height="10"/>
	</g>
	<g transform="translate(118,0)">
		<rect x="587.6" y="-173.6" class="st112" width="1" height="10"/>
	</g>
	<g transform="translate(119,0)">
		<rect x="587.6" y="-173.6" class="st113" width="1" height="10"/>
	</g>
	<g transform="translate(120,0)">
		<rect x="587.6" y="-173.6" class="st114" width="1" height="10"/>
	</g>
	<g transform="translate(121,0)">
		<rect x="587.6" y="-173.6" class="st115" width="1" height="10"/>
	</g>
	<g transform="translate(122,0)">
		<rect x="587.6" y="-173.6" class="st116" width="1" height="10"/>
	</g>
	<g transform="translate(123,0)">
		<rect x="587.6" y="-173.6" class="st117" width="1" height="10"/>
	</g>
	<g transform="translate(124,0)">
		<rect x="587.6" y="-173.6" class="st118" width="1" height="10"/>
	</g>
	<g transform="translate(125,0)">
		<rect x="587.6" y="-173.6" class="st119" width="1" height="10"/>
	</g>
	<g transform="translate(126,0)">
		<rect x="587.6" y="-173.6" class="st120" width="1" height="10"/>
	</g>
	<g transform="translate(127,0)">
		<rect x="587.6" y="-173.6" class="st121" width="1" height="10"/>
	</g>
	<g transform="translate(128,0)">
		<rect x="587.6" y="-173.6" class="st121" width="1" height="10"/>
	</g>
	<g transform="translate(129,0)">
		<rect x="587.6" y="-173.6" class="st122" width="1" height="10"/>
	</g>
	<g transform="translate(130,0)">
		<rect x="587.6" y="-173.6" class="st123" width="1" height="10"/>
	</g>
	<g transform="translate(131,0)">
		<rect x="587.6" y="-173.6" class="st123" width="1" height="10"/>
	</g>
	<g transform="translate(132,0)">
		<rect x="587.6" y="-173.6" class="st124" width="1" height="10"/>
	</g>
	<g transform="translate(133,0)">
		<rect x="587.6" y="-173.6" class="st125" width="1" height="10"/>
	</g>
	<g transform="translate(134,0)">
		<rect x="587.6" y="-173.6" class="st125" width="1" height="10"/>
	</g>
	<g transform="translate(135,0)">
		<rect x="587.6" y="-173.6" class="st126" width="1" height="10"/>
	</g>
	<g transform="translate(136,0)">
		<rect x="587.6" y="-173.6" class="st127" width="1" height="10"/>
	</g>
	<g transform="translate(137,0)">
		<rect x="587.6" y="-173.6" class="st128" width="1" height="10"/>
	</g>
	<g transform="translate(138,0)">
		<rect x="587.6" y="-173.6" class="st129" width="1" height="10"/>
	</g>
	<g transform="translate(139,0)">
		<rect x="587.6" y="-173.6" class="st129" width="1" height="10"/>
	</g>
	<g transform="translate(140,0)">
		<rect x="587.6" y="-173.6" class="st130" width="1" height="10"/>
	</g>
	<g transform="translate(141,0)">
		<rect x="587.6" y="-173.6" class="st131" width="1" height="10"/>
	</g>
	<g transform="translate(142,0)">
		<rect x="587.6" y="-173.6" class="st132" width="1" height="10"/>
	</g>
	<g transform="translate(143,0)">
		<rect x="587.6" y="-173.6" class="st133" width="1" height="10"/>
	</g>
	<g transform="translate(144,0)">
		<rect x="587.6" y="-173.6" class="st134" width="1" height="10"/>
	</g>
	<g transform="translate(145,0)">
		<rect x="587.6" y="-173.6" class="st135" width="1" height="10"/>
	</g>
	<g transform="translate(146,0)">
		<rect x="587.6" y="-173.6" class="st1" width="1" height="10"/>
	</g>
	<g transform="translate(147,0)">
		<rect x="587.6" y="-173.6" class="st136" width="1" height="10"/>
	</g>
	<g transform="translate(148,0)">
		<rect x="587.6" y="-173.6" class="st137" width="1" height="10"/>
	</g>
	<g transform="translate(149,0)">
		<rect x="587.6" y="-173.6" class="st138" width="1" height="10"/>
	</g>
	<g transform="translate(150,0)">
		<rect x="587.6" y="-173.6" class="st139" width="1" height="10"/>
	</g>
	<g transform="translate(151,0)">
		<rect x="587.6" y="-173.6" class="st139" width="1" height="10"/>
	</g>
	<g transform="translate(152,0)">
		<rect x="587.6" y="-173.6" class="st140" width="1" height="10"/>
	</g>
	<g transform="translate(153,0)">
		<rect x="587.6" y="-173.6" class="st141" width="1" height="10"/>
	</g>
	<g transform="translate(154,0)">
		<rect x="587.6" y="-173.6" class="st141" width="1" height="10"/>
	</g>
	<g transform="translate(155,0)">
		<rect x="587.6" y="-173.6" class="st142" width="1" height="10"/>
	</g>
	<g transform="translate(156,0)">
		<rect x="587.6" y="-173.6" class="st143" width="1" height="10"/>
	</g>
	<g transform="translate(157,0)">
		<rect x="587.6" y="-173.6" class="st143" width="1" height="10"/>
	</g>
	<g transform="translate(158,0)">
		<rect x="587.6" y="-173.6" class="st144" width="1" height="10"/>
	</g>
	<g transform="translate(159,0)">
		<rect x="587.6" y="-173.6" class="st144" width="1" height="10"/>
	</g>
	<g transform="translate(160,0)">
		<rect x="587.6" y="-173.6" class="st145" width="1" height="10"/>
	</g>
	<g transform="translate(161,0)">
		<rect x="587.6" y="-173.6" class="st146" width="1" height="10"/>
	</g>
	<g transform="translate(162,0)">
		<rect x="587.6" y="-173.6" class="st146" width="1" height="10"/>
	</g>
	<g transform="translate(163,0)">
		<rect x="587.6" y="-173.6" class="st147" width="1" height="10"/>
	</g>
	<g transform="translate(164,0)">
		<rect x="587.6" y="-173.6" class="st148" width="1" height="10"/>
	</g>
	<g transform="translate(165,0)">
		<rect x="587.6" y="-173.6" class="st149" width="1" height="10"/>
	</g>
	<g transform="translate(166,0)">
		<rect x="587.6" y="-173.6" class="st150" width="1" height="10"/>
	</g>
	<g transform="translate(167,0)">
		<rect x="587.6" y="-173.6" class="st151" width="1" height="10"/>
	</g>
	<g transform="translate(168,0)">
		<rect x="587.6" y="-173.6" class="st152" width="1" height="10"/>
	</g>
	<g transform="translate(169,0)">
		<rect x="587.6" y="-173.6" class="st153" width="1" height="10"/>
	</g>
	<g transform="translate(170,0)">
		<rect x="587.6" y="-173.6" class="st154" width="1" height="10"/>
	</g>
	<g transform="translate(171,0)">
		<rect x="587.6" y="-173.6" class="st154" width="1" height="10"/>
	</g>
	<g transform="translate(172,0)">
		<rect x="587.6" y="-173.6" class="st155" width="1" height="10"/>
	</g>
	<g transform="translate(173,0)">
		<rect x="587.6" y="-173.6" class="st156" width="1" height="10"/>
	</g>
	<g transform="translate(174,0)">
		<rect x="587.6" y="-173.6" class="st156" width="1" height="10"/>
	</g>
	<g transform="translate(175,0)">
		<rect x="587.6" y="-173.6" class="st157" width="1" height="10"/>
	</g>
	<g transform="translate(176,0)">
		<rect x="587.6" y="-173.6" class="st158" width="1" height="10"/>
	</g>
	<g transform="translate(177,0)">
		<rect x="587.6" y="-173.6" class="st158" width="1" height="10"/>
	</g>
	<g transform="translate(178,0)">
		<rect x="587.6" y="-173.6" class="st159" width="1" height="10"/>
	</g>
	<g transform="translate(179,0)">
		<rect x="587.6" y="-173.6" class="st159" width="1" height="10"/>
	</g>
	<g transform="translate(180,0)">
		<rect x="587.6" y="-173.6" class="st160" width="1" height="10"/>
	</g>
	<g transform="translate(181,0)">
		<rect x="587.6" y="-173.6" class="st161" width="1" height="10"/>
	</g>
	<g transform="translate(182,0)">
		<rect x="587.6" y="-173.6" class="st161" width="1" height="10"/>
	</g>
	<g transform="translate(183,0)">
		<rect x="587.6" y="-173.6" class="st162" width="1" height="10"/>
	</g>
	<g transform="translate(184,0)">
		<rect x="587.6" y="-173.6" class="st163" width="1" height="10"/>
	</g>
	<g transform="translate(185,0)">
		<rect x="587.6" y="-173.6" class="st163" width="1" height="10"/>
	</g>
	<g transform="translate(186,0)">
		<rect x="587.6" y="-173.6" class="st164" width="1" height="10"/>
	</g>
	<g transform="translate(187,0)">
		<rect x="587.6" y="-173.6" class="st165" width="1" height="10"/>
	</g>
	<g transform="translate(188,0)">
		<rect x="587.6" y="-173.6" class="st166" width="1" height="10"/>
	</g>
	<rect x="776.6" y="-173.6" class="st0" width="1" height="10"/>
	<text transform="matrix(1 0 0 1 762.0923 -151.6724)" class="st43 st50">1763</text>
	<text transform="matrix(1 0 0 1 587.5923 -179.7675)" class="st43 st48">word count</text>
</g>
</svg>
